<svg xmlns="http://www.w3.org/2000/svg" width="375" height="461" viewBox="0 0 375 461">
  <path id="Контур_29" data-name="Контур 29" d="M685.531,407.692c.589,3.156,1.168,6.48.133,9.52s-4.292,5.58-7.368,4.648c-2.387-.723-3.765-3.121-5.46-4.949-9.425-10.167-30.689-4.281-36.511-16.859-2.376-5.134-.761-11.283-2.382-16.7a14.878,14.878,0,0,0-15.067-10.228,30.986,30.986,0,0,0-8.671,2.586,218.779,218.779,0,0,1-57.446,14.357,47.222,47.222,0,0,0-11.038,2.007C533.626,395,528.1,402.5,524.16,410.152s-6.841,15.934-12.118,22.732c-5.545,7.144-13.316,12.146-20.565,17.558a20.968,20.968,0,0,0-6.784,7.1c-1.571,3.224-1.483,6.973-1.361,10.557l1.482,43.526c.191,5.6.43,11.4,2.937,16.407,3.131,6.256,9.317,10.354,13.609,15.881a31.088,31.088,0,0,1,6.458,19.864c-.091,2.881-.378,6.289,1.868,8.1a8.219,8.219,0,0,0,4.593,1.32l58.924,4.819c10.365.847,21.852,2.241,28.619,10.132,3.194,3.724,5.759,9.08,10.651,9.479,2.1.171,4.14-.689,6.239-.855,5.295-.419,9.947,3.6,12.882,8.02a35.559,35.559,0,0,1,5.719,22.831c-.481,5.046-2.047,9.951-2.384,15.008-1.284,19.243,15.041,35.962,15.358,55.245.186,11.342-5.2,21.94-10.456,32,8.479,12.835,1.536,29.927,4.912,44.932,3.2,14.235,15.082,25.38,18.042,39.668,1.355,6.541,1.433,14.59,7.206,17.959a16.438,16.438,0,0,0,8.154,1.631,107.558,107.558,0,0,0,48.949-11.135c7.138-3.54,14.535-8.823,15.782-16.687,1.005-6.342-2.213-13.436,1.062-18.959,3.86-6.51,13.75-5.995,19.43-11,9.215-8.121,2.029-23.608,5.763-35.3,3.356-10.513,14.909-16.1,20.635-25.535a45.364,45.364,0,0,0,4.8-12.986,185.089,185.089,0,0,0,4.879-33.12,198.358,198.358,0,0,1,1.5-20.287c6.174-38.327,44.094-63.992,56.406-100.812,1.176-3.516,1.728-8.2-1.4-10.19a8.971,8.971,0,0,0-5.962-.624l-27.162,3.422c-3.374.425-6.95.822-10.048-.578s-5.319-5.317-3.676-8.291c4.613-8.35-4.876-18.9-9.092-27.459a405.133,405.133,0,0,0-40.38-65.436,6.65,6.65,0,0,1-1.77-3.841l7.709.257c-2.6-9.331-6.9-19.541-15.969-22.954-5.112-1.923-10.773-1.258-16.227-.96C717.74,412.437,700.992,410.08,685.531,407.692Z" transform="translate(-483.273 -373.093)" fill="#23dba8"/>
</svg>
