<svg xmlns="http://www.w3.org/2000/svg" xmlns:xlink="http://www.w3.org/1999/xlink" width="150" height="150" viewBox="0 0 150 150">
  <defs>
    <filter id="Icon_ionic-md-globe" x="0" y="0" width="150" height="150" filterUnits="userSpaceOnUse">
      <feOffset input="SourceAlpha"/>
      <feGaussianBlur stdDeviation="15" result="blur"/>
      <feFlood flood-color="#fff" flood-opacity="0.161"/>
      <feComposite operator="in" in2="blur"/>
      <feComposite in="SourceGraphic"/>
    </filter>
  </defs>
  <g id="Компонент_26_1" data-name="Компонент 26 – 1" transform="translate(45 45)">
    <g transform="matrix(1, 0, 0, 1, -45, -45)" filter="url(#Icon_ionic-md-globe)">
      <path id="Icon_ionic-md-globe-2" data-name="Icon ionic-md-globe" d="M33.375,3.375a30,30,0,1,0,30,30A30,30,0,0,0,33.375,3.375ZM30.267,58.9a25.717,25.717,0,0,1-16.462-42.21,28.493,28.493,0,0,1,.29,3.487c-.237,3.432-.575,5.58,1.434,8.475.783,1.128.975,2.744,1.356,4.05.373,1.277,1.861,1.947,2.887,2.734,2.071,1.588,4.052,3.433,6.248,4.831,1.449.922,2.355,1.381,1.93,3.15a11.177,11.177,0,0,1-1.173,3.566c-.225.387.848,2.873,1.2,3.23,1.081,1.081,2.155,2.073,3.333,3.047C33.144,54.772,31.139,56.734,30.267,58.9Zm21.291-7.346a25.531,25.531,0,0,1-13.349,7.079A10.667,10.667,0,0,1,41.366,54.4a10.744,10.744,0,0,0,2.84-3.512,24.4,24.4,0,0,1,1.958-3.349c1.019-1.572-2.512-3.943-3.657-4.44a37.7,37.7,0,0,1-6.8-4.237c-1.631-1.147-4.941.6-6.782-.2-2.521-1.1-4.6-3.014-6.79-4.664-2.262-1.7-2.152-3.689-2.152-6.2,1.771.065,4.291-.49,5.467.934.371.45,1.647,2.458,2.5,1.744.7-.583-.517-2.921-.752-3.47-.722-1.69,1.645-2.349,2.856-3.494,1.581-1.495,4.972-3.839,4.7-4.911s-3.393-4.107-5.228-3.634c-.275.071-2.7,2.61-3.165,3.009q.019-1.243.037-2.486c.008-.523-.976-1.06-.93-1.4.115-.853,2.49-2.4,3.08-3.08-.414-.259-1.826-1.471-2.253-1.293-1.035.431-2.2.728-3.238,1.159a6.586,6.586,0,0,0-.1-1.029,25.469,25.469,0,0,1,6.535-1.9l2.031.816,1.434,1.7L34.4,11.943l1.251.4,1.987-1.874-.512-1.338v-1.2a25.434,25.434,0,0,1,10.893,4.3c-.582.052-1.221.138-1.942.229a6.463,6.463,0,0,0-1-.378C46.013,14.106,47,16.1,47.994,18.1c1.066,2.135,3.432,4.425,3.847,6.678.49,2.656.15,5.069.418,8.194.258,3.009,3.393,6.429,3.393,6.429a6.793,6.793,0,0,0,2.652.321A25.556,25.556,0,0,1,51.558,51.558Z" transform="translate(41.62 41.62)" fill="#23dba8"/>
    </g>
  </g>
</svg>
