<svg xmlns="http://www.w3.org/2000/svg" width="814.647" height="866.761" viewBox="0 0 814.647 866.761">
  <g id="kr" transform="translate(0 0)">
    <path id="KOR99" d="M335.922,853.4l-1.059.733-1.384-.407-.489-.57v-1.3l.9-2.524.407-.407,1.059.9-.081.407.489,1.221ZM543.563,676.214l-1.058.489-.733-.163.163-.814.814-.407,1.221-1.466.163.733.57.163v.651Zm-25.894-1.3.733.57-.57.733-1.466-.814-1.954.326-.9-1.384.733-1.058-.733-.326-.651-.9.489-.407,1.466,1.384,1.954,1.71.9.163Zm-19.706-5.944.9.977.733-.57.733.326.407-.489,1.221.163.489.326-.489.977-1.14.163-2.606-.57-.244-1.3Zm-3.176-.9-.407-.407-2.524-.814-.814-1.3.9-1.3,2.687.57.9,1.791v.733l-.733.733ZM535.42,660.5l-.244.407h-2.361l-.814-.244-2.036-1.14.407-.488,2.117-.651.9.488Zm-26.953-2.036.163.652-1.547-.489-.57-1.384.163-.733.57-.326,1.3.733.57.814Zm27.441-2.768,2.606,1.221,1.547-.244,1.221.57v.9l-.733.326-1.14-.163-1.14-.733-2.769-.489-.57-.814ZM532,648.854l.9,3.176.57.9.977.326.488,1.466L534.2,656.1l-1.466.814-2.2-.326-.733-.814.326-.733-.163-.814-.977-1.791-.081-2.361,1.059,1.221.407-1.221-.326-.489v-.977l.814-.977.57.163.081.977.489.081Zm-45.03-2.361h-.326l-.977-2.117,1.791.326.407.57-.163,1.059-.733.163Zm7.817-1.547-1.384,1.221-2.2-3.338.57-1.14,1.384-.489,5.456,1.3-.081.814-1.71.326Zm41.935-14.169-.489.244-.651-3.5.489-1.547-.489-1.3,2.524-1.547.163,1.71-1.14,1.954.57.651v1.792l-.163.9Zm15.96-8.876-1.791,1.384-.326-.733-.651-.651-.652.244-.651.652-.407-.488.081-.977,1.14-.57.163-.733-.489-.733,1.059-.489.733-.651V617.1l1.3-.57.489-.814.651-.081.081,1.71-.407,1.466v1.384l-.326,1.71ZM541.69,608.955l.081,1.547-1.547-1.466-.9-1.059,1.547-.163ZM293.906,494.3l-1.547,1.221-.489-.651.244-1.629,1.384-1.14.9,1.384Zm-21.5-5.944.9.814.977.489-.814.57-1.873.163-.733-.814-.407,1.059-.489.489-.57-.814v-1.222l-.57-1.14-.081-.9,1.628.326.733.814Zm-11.644-3.827-1.3.57-.977-.082.326-1.221,1.71-.244.244.977Zm-50.159-43.727-.326.733-.651.163.244.977-.733.489-.9-.651-.407-1.14,1.14-1.14,1.629.57ZM223.96,424.44l-2.361.977-1.547-.326.733-1.059.977-1.059,1.71.244.489,1.221Zm34.607-17.181-.733.977-1.221-.733-1.222.489-.081-.407.57-1.71.9-.9.489-1.547.57.326.407,1.873.9.977-.57.651Zm8.794-7.736.651,1.791.57.733,2.2.489v.57l-1.059.488-8.061-2.2-.57-.977.407-.9h.814l1.71.814.651-.326.163-.9,1.384-.407.651.081Zm-45.029-47.635-.407.814-.651.326-.57-.407-1.954.977-.9-.814.651-.407,2.85-1.221.733-1.466.57.733ZM211.664,295.54l.733.326.407.733-2.117.163-.977-1.221-.733-2.2h1.059l.733,1.14-.244.651,1.14.407Zm57.488-2.85-2.117.57-.57-.489-.814-2.117.326-.814,3.094.814.407,1.3Zm-61.966-7.166v1.14l-1.547-.163v1.059l-.163,1.059-.814.163v-.733l-.651-.489.081-1.059.57-.407.081-1.059.651-.163,1.791.651Zm15.471-2.85-1.221,3.827h-1.059l-.489-.651,1.221-1.059-.977-.489-.733.081.814-1.221Zm39.167-1.384.489,2.85-.814-.814-.651-.244v-1.71l.977-.081Zm-16.774-10.911,1.221.977.326,1.384.651.651.651,1.14-1.221-.488-.651-1.14h-.977l-1.14-.407-.651-1.3h1.14l.651-.814Zm-20.357-.57.814,1.059.326.733v1.629l-1.873-.082-.651-.977-.326-1.466.244-.814Zm69.865-7,.57,2.85-2.117-.9-.57-1.384.9-1.14Zm-45.762-6.351,4.8,1.629,1.628-.326.326.9-.9,1.384-1.466.244-1.221-.407-1.14-.651h-.9l-1.873-1.384.163-1.14.57-.244Zm19.135-16.774-1.466.814-1.629-.081-.977-3.339-.651-.651-.081-1.059.57-1.384.733-.163,1.059.814,1.547,2.036,1.221,1.221Zm4.153-22.963-.407.407-3.827-1.059-.489-.814,1.14-1.221,1.059-.57.407-.57.9-.489,1.14.244.57.814-.163,2.606-.326.651Zm-16.856-2.28-.814.326-.407-.57-.9-2.361-1.221-1.629.814-.489,2.117,1.14,1.791,1.954,3.827.163.57.733-1.629.651-4.153.081Zm-80.45-12.377-.977.326.407-1.547,1.221-.489.244.814Zm70.516-3.99-.651.244-2.117-1.547-1.547-1.954v-.489l3.339-.326.244.651-.163,2.361Zm-7.654-7.573.651,2.117-.326,1.059-1.059-.163-2.036-1.873L233,191.476l-.9-.9,4.723-1.629Zm-7.654-2.036-.407,1.221-.489-.326-1.221-.163-.244-1.059.9-.407Zm11.97-4.8-.326.326-1.791-.977.814-.407,1.547.081.814.9-1.059.081Z" transform="translate(-32.093 -33.727)" fill="#23dba8" stroke="#23dba8" stroke-linecap="round" stroke-linejoin="round" stroke-width="2"/>
    <path id="KOR2494" d="M597.429,314.975l-1.547,1.791-1.71,1.059-1.547-.57-1.221.733-3.013,3.176-3.257,2.769-2.2,2.036-2.606.9-1.628,1.3-1.14,2.036-3.99,2.85-2.769,4.071-1.384,3.013-1.628,3.013.9,1.629,1.71,1.547-1.873,6.351-10.83,4.478-4.56-1.466-1.954-3.909-3.013-2.606-2.2-1.547-1.629-1.873-1.71,1.629-1.3,2.117-.651,2.524-.9,2.687-3.746-.326L532.043,353l-2.036-1.384-2.2,1.466-2.117,2.85-2.606.163-2.036-1.3L519.5,357.4l-1.629,3.5-.9,3.339,2.524,3.176L521.376,371l-9.2-1.384-4.886-2.2-2.769,4.234-4.56,2.117-3.99,2.687-.326,1.954.081,1.466-.733,1.629-2.85,3.909-1.873,2.036-1.873.326-1.954.9,1.466,3.664,5.049.9,6.27,9.2-2.28,2.28-1.3,3.664-.489,8.713-.814,3.827.814,2.769,1.466,2.524-1.873,3.664-2.85,2.524.733,7.573,5.211-1.221,3.094,1.058,3.664,3.013,2.524,1.221,6.6-1.629,2.85,2.2,1.466,8.306-2.687-.163-3.094-.57-3.176,2.687.733,4.316.081,2.117-.326,2.687-1.221,1.466-.977,1.791-1.14,4.071-1.954,3.908-3.257,1.14-3.094,1.466-1.628,1.791-1.71,1.466-1.873-.977-1.873-1.791-4.723,2.117-4.153,2.524-2.117-.57-1.14-1.466-5.781-1.954-1.954-2.28-2.2-1.3-.814,1.14-1.059.244-1.221-1.14-1.059-1.3-2.931-4.56L459,465.128l-1.058-5.537.163-5.456-1.3-4.8-3.99-2.443-3.827-1.221-4.153.9-.326-4.56.244-4.4,1.547-6.188,2.85-5.293,1.221-2.687,1.3-2.361,2.117-1.629.489-2.768-1.629-.57-1.791-.814-2.2,1.629-1.71,2.28-1.3-4.234-.244-2.85-1.547-.9.163-1.791-1.791-.407-1.466,2.117-4.153.977-3.909-1.14.489-2.768-.733-1.791-1.14-.57-.9-.977-.489-1.221.326-1.221.57-1.547.244-1.71-.244-1.629-.407-.977.244-1.221.651-1.547.081-1.71-9.771-.651L412.1,393.39l.57-4.967,1.629-4.641-.244-2.687,2.524-5.456,3.583-5.211,2.687-4.723,1.14-1.14,1.221.163,1.14-.326.651-1.221.244-1.384.326-1.791.651-1.629.326-1.873-.244-1.791-.9-1.629-1.059-.977.163-3.339-1.71-1.14-2.2-4.478-1.71-1.059-1.547-1.547-1.058-2.443,5.781-1.629,5.537-2.687,4.234-1.466,1.221-4.723,2.036-2.28,3.339-1.384,1.547-2.036,1.059-2.687,2.036-2.117,2.524.489.733.977,3.176-2.28L457.7,304.8l1.384-2.606,2.036-1.547,1.059-1.547.9-1.71,13.6-3.746,13.68-1.873-1.14,7.817,3.99-.977,3.908.326,2.2,1.222.977-.9.9-1.059,2.606-1.791-.733-7.9L505.5,285.5l6.6-2.2,4.886,5.211v3.5l1.629,2.2,4.234-.977,4.234-2.443,2.606-1.954,3.094.651L535.3,288.1l3.013-2.28,7.166,2.524,7.328,1.221,2.362.651-1.466,3.42-3.746,2.687-2.2,3.42,1.384,1.547,1.791,1.059h1.222l1.14-.57,3.909-1.3,6.107-.651,1.3,1.384-.244,2.28,2.606,2.687.9,2.117,2.362-.163,2.768-.489,3.094-.977,3.094-.081,3.013,2.361,3.42,2.2,3.339.651,3.339.407,2.606,1.14,2.524,1.629Z" transform="translate(-76.351 -52.43)" fill="#23dba8" stroke="#23dba8" stroke-linecap="round" stroke-linejoin="round" stroke-width="2"/>
    <path id="KOR2495" d="M305.1,224.861l.814,1.954-.651.326-1.14.814-.407.57-2.28.489-.977-.163-4.4,1.954-1.629,1.466-.9,1.629-5.619,4.234-1.221-.244h-1.71l-.57-2.036-.977-.651-.489.57-.651-1.547-.814-.163-1.3,1.384-.977-.489-1.384-.326.814-.814-.244-.9-1.384-1.3-.407-.9.489-1.221.814-.163,1.059.489,5.863-4.071,4.153-.489,2.85.081,2.606-1.384.9-3.664,1.791-.651,1.547,1.547,2.2.977,1.466.163,1.059.57.977,1.3.733.651Zm18.484,20.357-.326-1.14-6.759-.814-3.176,3.99-3.257-2.443,1.3-3.013,1.71-2.524-1.059-1.873-4.4-2.361.244-2.931-.407-2.361,1.3-2.2,3.664-1.059,1.14-.57.244-1.384-1.71-.489-.489,1.466-2.687.244-.651-1.629-.326-2.931.651-3.99,12.458-.407,7.654,7.328-.081,3.827,1.384,3.176,2.117,1.384,1.221,1.954-1.221,4.071-1.791,3.5L327.655,244l-4.071,1.221Z" transform="translate(-51.186 -40.079)" fill="#23dba8" stroke="#23dba8" stroke-linecap="round" stroke-linejoin="round" stroke-width="2"/>
    <path id="KOR2496" d="M689.791,327.932l-1.3-.081-4.316-.977-4.153,1.873-8.876-3.338,1.384-3.827L672.121,318l-1.14-3.99-.326-4.478,1.71-4.316,1.384-3.99L672.772,300l-1.14-1.059.57-3.664-9.445-.733L659.988,293l-3.013-1.3-1.222-2.931-.9-3.42-4.234-2.036-2.687-3.99-.57-5.293.9-3.99,2.2-1.629,2.443-.9,3.746,1.466,3.094-2.28-1.3-3.746-3.99-2.443-4.4-.977-3.5,1.791-3.42.9-4.723-2.2-5.049-.814-1.71.651-1.384-.163-1.14-1.466-1.547-.651-3.664,2.85-3.827,1.547-.326-2.85.326-2.768-2.28-1.14-2.443-.57-1.791-3.176-3.583-.326-3.5,1.71-2.28,2.85.814,3.99-.407,3.664-.733,3.42-3.339-.244-3.827-.9-3.176-1.3-3.338-1.791-2.524-1.629-2.606-1.14-3.339-.407-3.339-.651-3.42-2.2-3.013-2.361-3.094.081-3.094.977-2.769.489-2.361.163-.9-2.117-2.606-2.687.244-2.28-1.3-1.384-6.107.651-3.909,1.3-1.14.57h-1.221l-1.791-1.059-1.384-1.547,2.2-3.42,3.746-2.687,1.466-3.42-2.361-.651-7.329-1.221-7.166-2.524-3.013,2.28-2.524,1.384-3.094-.651-2.606,1.954-4.234,2.443-4.234.977-1.629-2.2v-3.5l-4.886-5.211-6.6,2.2-2.443,3.013.733,7.9-2.606,1.791-.9,1.059-.977.9-2.2-1.221-3.909-.326-3.99.977,1.14-7.817-13.68,1.873-13.6,3.746,6.921-12.947,5.781-14.168,7.9-16.937.977-3.664-.733-3.664,1.71-2.931,2.361-2.931,2.606-1.059,1.3-2.85-1.466-2.524-1.873-1.629-3.094-.326-3.176-1.221-4.316-.57-7.247-3.99-3.257-1.384-3.257-2.117-3.5-.57-3.5,1.14-2.85-2.443.244-2.687,1.384-2.769.489-3.176.081-3.339-3.42,1.14-1.547-1.954,3.746-4.479-.651-2.931-.977-2.931.733-2.2-.081-2.687-.244-2.524,6.6-4.8,2.606-.9,1.466-2.28.651-6.6-3.013-4.723-2.524-.489-2.361-1.059-1.791-4.886-2.85-.081-3.094.163-3.257-2.443-1.629-4.316-.651-7.736-1.221-3.827-.9-.814-.977.244-.733.651-.814.081-2.2-1.547-5.374,1.873-4.967-1.14L417.9,91.792l-2.036-1.873-.081-3.094.977-2.931,1.3-2.117-.9-.733-1.059-.244-1.059.163-.9.733-1.71,2.2-1.954,1.954-2.931.489-2.524-1.71L404.55,83l-.244-1.629-.9-.57-.977,1.059-.326,1.629-.081,5.374L400.4,91.548l-4.723-2.28-4.316-3.909-1.547-1.629-1.628.244L386.8,81.858l-.9-2.687-1.221-1.384-1.384-1.14-1.059-2.606-6.433-4.071-2.606-1.3.814-.9,7-5.863,8.224-5.13,8.631-3.583,8.306-.9,4.153.489L426.209,51.4l12.214,3.664,3.909-.326,7.573-2.28,24.835-2.2L475.8,51l1.629,2.361,1.547,1.629,1.791.407,8.55-1.791,13.517.814,8.794-.733,8.794-3.094,8.224-5.374,6.84-7.166,3.013-4.316,2.524-4.56,1.629-5.13.57-5.781-1.059-5.7-.326-2.85.814-2.117,3.5-2.769L553.481,1l9.853,19.543,1.221,5.211,3.013,7.9,11.4,22.555,8.875,23.7,1.466,2.524,4.56,5.781,1.791,4.8,21.5,30.78,8.306,12.133L635.478,147l1.384,1.14,6.677,7.9.407,3.339v3.99l.814,3.42,4.56,2.524,1.3,2.769,3.746,12.3,1.71,2.769,2.036,1.221,1.629,1.791,5.863,11.563,3.583,4.4,1.221,2.443.407,2.606.9,2.524,6.27,6.84,1.954,5.618,1.791,12.3,2.362,6.677,6.677,9.283.488,1.873-.814,1.873-1.14,1.791-.814,1.791v1.547l.9,5.048,1.14,14.413,1.221,6.677,4.234,13.517.407,6.677L695,315.718l-2.85,5.618-2.362,6.6Z" transform="translate(-69.126 0)" fill="#23dba8" stroke="#23dba8" stroke-linecap="round" stroke-linejoin="round" stroke-width="2"/>
    <path id="KOR2497" d="M388.668,207.537l-1.221,4.641,3.583-.081,3.013-1.059,2.606-.081.977,2.361-.326,2.443-1.791.9-1.954,1.3v2.931l1.059,1.221-2.2,3.013-1.222,2.117-3.338,1.954-3.664.9-3.827,1.873-1.466-3.339-3.176.733-3.257.977-2.2,1.3-2.361.407-5.537-.244-3.827-4.967-3.746-1.14-2.524-1.629-.651-4.723-2.606-3.583L346,212.015l1.873-4.153,3.664.163,4.071,2.524,3.094-.977,2.769-1.71.163-2.769.733-2.606,5.781-.57,3.013-3.746,1.791-3.909,2.606-2.687,3.99-.977,4.641.326,2.2,3.827.9,5.211,1.3,3.583.081,3.99Z" transform="translate(-64.075 -35.213)" fill="#23dba8" stroke="#23dba8" stroke-linecap="round" stroke-linejoin="round" stroke-width="2"/>
    <path id="KOR2498" d="M200.172,244.105l-.57.977-1.629,1.71-1.14.489-1.547.244-1.3-.57-1.14-2.361-1.221.651-.57-.163.407-3.257.733-2.2.9-1.3,1.059.733.9,1.547.977.733,3.176,1.71.977,1.059Zm41.039-1.547-1.059,1.3-1.466.326-.977-.733-1.059.081-.9-.488-.244-2.036.244-2.117,1.059-1.466,2.28-1.221,2.931.244,1.3.9.489,1.954-.57.733-1.384.407-.489,1.059-.163,1.059Zm12.377-6.107.489,1.3,1.547.9,2.443.977.651.733.651,2.117-.651,1.466-6.6,5.293-3.013.326.081-.814,1.384-1.873.163-1.14-.57-.9,1.629-1.954.081-1.954-.651-2.361-.977-1.629-.977-1.14.326-.326,2.117,1.059,1.791-1.629.407.163ZM140.16,175.543l-.733.326-1.14-2.85.163-1.466.977-.163,1.466.244.9.9-.407,1.791-1.221,1.221Zm87.128-.733-2.606.163-8.713-6.84,1.14-.977.488-1.3.733-3.094,1.059-1.629.733-.57.733-.244.489.326.489,1.14.407,3.013.814,1.629.814.9,3.339,2.769,1.221,1.466.244,1.547-1.384,1.71ZM20.543,155.268l.651.57-.244.814-.9.244-1.221-.326-.9.407-.814.977-1.14.57.57-1.71.9-.651.244-.9,1.71.081,1.14-.081Zm194.693-5.374,2.443,1.466,2.524-.081,2.361.407,1.221,1.3-.9,2.931-2.28,1.954-2.769.244-5.374-1.221-2.687,1.3h-1.221l-.489-1.791.244-.57,1.466-4.479,1.629-1.547,1.791-.489,2.036.57Zm32.571,30.373-1.466,3.42-1.3,1.14-.977.163-.733-.407-1.384-1.466-.977-.57-.651.244-1.059.814-6.758.407-2.524-1.221-2.687-3.5,3.99-1.059.977-.651,1.059-1.71-.163-.733-.733-.489-.651-.9-4.56-8.794-.326-1.384.489-1.71-.081-7.736.489-1.791,1.3-.407,3.013-3.583,2.361-.57,2.036,1.466,1.954,2.28,1.954,1.791,4.153,2.117,1.629,1.629.651,2.606-.163,1.384-.651,2.2-.163.977.326,1.059,1.14,2.2.326,1.221.407,5.863-.407,1.384.651.9,1.14,2.443-1.629.977ZM13.947,150.138l-.977.57-.977-.081-.814.326-.651.651-.814-1.3-.977-1.384.407-1.221L11.26,145.9l2.036-1.954.977.163.977.489.244,1.059-.651,1.466-.326,1.629-.57,1.384Zm2.361-27.848L17.774,124l-.244,2.443-1.791,1.3L13.3,126.2l-3.339.326-.651.326.081,1.71,1.221.57,1.466.326.733.57L10.2,132.142l-5.293-.733L1,128.071l1.3-5.781,3.339,1.14,7.084-2.524Zm370.414,138.1-.9,1.71-1.059,1.547-2.036,1.547-1.384,2.606-6.189,11.481-3.176,2.28-.733-.977-2.524-.489-2.036,2.117-1.059,2.687-1.547,2.036-3.339,1.384-2.036,2.28-1.221,4.723-4.234,1.466-5.537,2.687-5.781,1.629-6.026-.814-4.967-4.153-5.619-2.524-10.667,4.56h-5.048l-6.107-1.221,1.71-1.3,1.954-.9,1.384-1.547.814-3.908-.244-.733-1.384-1.629.651-.651h1.384l1.791-1.059,1.14-.163.814-.57.407-1.873-7.736,2.2-1.14,1.628.407,4.967-.977,1.14-3.013.977-4.234-.57-5.048-2.931-4.56-4.56-1.791-4.316,7.736-.814v-.977l-1.71-1.221,1.384-.163,1.384.081,1.3.407,1.059.9-.489-3.094-1.792-2.769-1.3-3.094.977-4.316-1.466-.651-1.14,1.466-.651,2.606-.244,2.606-.651,2.85-1.221.651-1.221-1.221-2.443.489-2.443.651-5.944-1.792v-1.873l-.57-1.547.489-2.2-.244-2.769,1.466-2.768,1.791-2.443,2.036-.977,2.2-.814,3.257-.081,3.5-.977.733-1.058.244-3.013-.814-.57-1.791.977-2.687,2.361-1.71-.407-1.221-.733-.651-1.221v-1.954l-3.013,1.547-2.524,1.791-4.56,4.967-1.221.977-1.466.489h-1.384l-.814-.9v-1.466l.814-1.466,1.873-2.687-3.746.9-1.14-.407-.489-2.2.733-1.629,1.547-.9,1.791-.651,1.3-.733,1.547-2.117-.407-.57-3.42.489-1.14-.733-.9-1.71-.9-2.2-.977-2.036.57-.163,1.14-.977.977.733,1.384-.081,2.524-.651,2.036.57,1.71,1.059,1.71.489,1.954-.977-.163,1.873.163,1.71.651,1.384,1.221.57,1.384-.489.57-1.547.651-3.5,2.2-3.257,1.791.326,2.036,1.221,2.85-.489-.651-1.3-.814-.977-.977-.651-1.221-.326H286.4l-.814-1.221-1.873-.326-1.547.489-1.547-.081-2.443-.489-4.072-1.3-5.618-4.234-.244-1.873,2.443-3.664,1.71-1.71,4.071-1.221,2.687-1.954,1.791-3.5,1.221-4.071-1.221-1.954-2.117-1.384-1.384-3.176.081-3.827-7.654-7.328-12.458.407-1.629-3.827-2.443-4.153-1.466-1.466-.081-2.2-.489-3.257-1.384-5.13-1.873-13.436.489-2.2,1.71-.326,7.084,2.606,2.28-.489,1.873-.9,1.71-.326,1.71,1.14.651,1.954.244,2.931-.163,3.094-.733,2.117-.081,3.827,3.99,3.339,5.048,2.117,3.094.163-2.443-2.524-7.41-5.374,2.117-5.781.651-3.42-.489-2.443-1.221-2.524-.244-3.339.57-3.257,1.3-2.606-.977-1.221-1.221.163-1.954,1.384-.9-14.087.651-3.827,1.547-1.14,2.443-.326,3.257-1.221,5.13-4.153L288.847,105.6l2.2-2.28,4.967-3.827,2.117-2.524,4.4-10.83,1.547-2.036,2.606,1.3,6.433,4.071,1.059,2.606,1.384,1.14,1.221,1.384.9,2.687,1.384,2.117,1.629-.244,1.547,1.629,4.316,3.909,4.723,2.28,1.629-2.687.081-5.374.326-1.629.977-1.059.9.57.244,1.629.489,1.629,2.524,1.71,2.931-.489,1.954-1.954,1.71-2.2.9-.733,1.059-.163,1.059.244.9.733-1.3,2.117-.977,2.931.081,3.094,2.036,1.873,1.954,1.221,4.967,1.14,5.374-1.873,2.2,1.547.814-.081.733-.651.977-.244.9.814,1.221,3.827.651,7.736,1.629,4.316,3.257,2.443,3.094-.163,2.85.081,1.791,4.886,2.361,1.059,2.524.489,3.013,4.723-.651,6.6-1.466,2.28-2.606.9-6.6,4.8.244,2.524.081,2.687-.733,2.2.977,2.931.651,2.931-3.746,4.478,1.547,1.954,3.42-1.14-.081,3.339-.489,3.176-1.384,2.769-.244,2.687,2.85,2.443,3.5-1.14,3.5.57,3.257,2.117,3.257,1.384,7.247,3.99,4.316.57,3.176,1.221,3.094.326,1.873,1.629,1.466,2.524-1.3,2.85-2.606,1.059-2.361,2.931-1.71,2.931.733,3.664-.977,3.664-7.9,16.937-5.781,14.168-6.921,12.947Zm-62.129-72.633-.081-3.99-1.3-3.583-.9-5.211-2.2-3.827-4.641-.326-3.99.977-2.606,2.687-1.791,3.909-3.013,3.746-5.781.57-.733,2.606-.163,2.768-2.769,1.71-3.094.977-4.071-2.524-3.664-.163-1.873,4.153,3.013,3.746,2.606,3.583.651,4.723,2.524,1.629,3.746,1.14,3.827,4.967,5.537.244,2.361-.407,2.2-1.3,3.257-.977,3.176-.733,1.466,3.339,3.827-1.873,3.664-.9,3.339-1.954,1.221-2.117,2.2-3.013-1.059-1.221V198.18l1.954-1.3,1.791-.9.326-2.443-.977-2.361-2.606.081-3.013,1.059-3.583.081,1.221-4.641Z" transform="translate(0 -15.434)" fill="#23dba8" stroke="#23dba8" stroke-linecap="round" stroke-linejoin="round" stroke-width="2"/>
    <path id="KOR2499" d="M267.329,579.86l.244.9-.489,1.221-2.361,2.036-1.547,1.792-1.466,1.14-.733.163-.57-.57L260,585.479l.244-.977,1.384-.733-.814-.651.977-.814.489-.651,1.221-.326-.163-.9,1.954.326,1.466-1.384Zm169.044-65.712,1.059,1.3,1.221,1.14,1.059-.244.814-1.14,2.2,1.3,1.954,2.28,5.781,1.954,1.14,1.466,2.117.57,4.153-2.524,4.723-2.117,1.873,1.791,1.873.977,1.71-1.466,1.628-1.791,5.293,9.038-.651,10.179-4.723,5.048-1.221,3.339-6.433,3.42-3.176.977-1.71-.163-1.3.814-2.443,5.211-2.768,2.931-2.931,2.606-1.466,4.153-.326,4.886-1.628,3.583-2.036,3.746-1.466,4.8-1.14,4.886-1.791,3.746-.081,3.99,3.257,1.384.489,1.71.244,2.036,1.466,3.746-.244,3.99,1.3,3.013,1.873,1.221-.814,4.4-5.374,6.433-.814,4.234-.244,3.909-2.687,2.768L428.8,627.74l-8.224-3.013-4.723,2.606-3.746,4.071-3.99.57H403.8l-4.641.651-4.8-.081-2.2-1.3-1.954-1.547-2.2.57h-2.687l-3.909.651-3.664,2.2-4.8-.733-3.094-3.257.163-5.211-2.687-3.013-.733-2.931,1.14-4.56-2.606-3.99-3.827.244-.9,1.628-1.3,1.221-.814,2.117-.326,2.2-3.908.081-6.107-8.224-3.909-3.257-2.28-.9-2.28-.163-2.2,2.524-4.316-.407-3.257,2.85v2.2l.081,2.117-1.14,1.791-1.629,1.221.081,1.628.244,1.629-1.059,2.28-1.71,1.466-2.117,1.058-2.2.57-1.873,1.14-1.71,1.3-4.316.651-4.153,1.466-3.827.977-3.176-1.059.163-4.316.814-4.234.733-5.781-3.664-.977-12.54,3.5-2.687.814-1.791-2.036-.57-1.629.9-3.746,2.2-4.641,3.5-8.143,2.931-4.316,4.234-1.466,4.8-.977,4.071-.244,1.873-1.547,1.873-2.606,2.524-.651,2.28,2.606,2.361,2.931,1.71.57-1.629-5.944-1.221-2.687-1.954-1.14-18.24,3.013-6.351-3.99.489-5.944,3.013-1.547,2.606-2.606,2.443-2.769,3.827-2.28,4.8-2.606,3.583-5.048.57-4.723,3.42-2.117.814-.651,4.56-.489,4.56.57,2.85,2.2,2.036.489,1.384,2.443.57-1.3.407-1.792.163-1.873-2.85-2.28-2.524-1.221-2.769-1.873-2.28-1.71-1.14-.651.326-1.384,1.059-1.466,1.059-.9,1.14-.244,7.247.489,1.547-.163,1.14-.57.814-1.466.326-1.14.57-.814,1.791-.326.57-.489L335,534.668l-1.384-1.14-1.547-.57-.407.326-9.446,3.827-3.176.163-6.27-.407-6.107-.489-.081-2.769-.407-3.746-1.221-1.059-3.827-1.3-5.618.9-.57-4.8,11.644-1.3,6.351-.814,6.433-.326,2.117-1.3,2.2.651,2.687-1.384,4.723-3.583,6.026-2.443,2.606-1.791.244-2.28-7.573,2.28,5.781-7.166,6.188-.651,7.247-1.547L364.96,497.7l4.723.977-1.14,7L371.312,510l3.746-.733,3.664-1.384,7.084-1.384,1.873-.651,1.791-.814,2.687-.57,1.791-2.687,2.117-2.2,4.153,3.664L406,513.66l4.234,2.117,1.71.489.733,1.547-.9,1.792.489,1.3,7.491.977,2.769-.651,3.827-.163,3.827-1.059,3.094-2.769,3.094-3.094Z" transform="translate(-48.103 -92.249)" fill="#23dba8" stroke="#23dba8" stroke-linecap="round" stroke-linejoin="round" stroke-width="2"/>
    <path id="KOR2500" d="M364.931,668.9l6.6,2.524,2.606,7.247-5.048,6.758-7.98-1.3-7-4.234-3.5-7.736,2.768-2.606,4.641,1.221,3.339-.814,3.583-1.058Z" transform="translate(-64.929 -124.045)" fill="#23dba8" stroke="#23dba8" stroke-linecap="round" stroke-linejoin="round" stroke-width="2"/>
    <path id="KOR2502" d="M276.284,408.365l-.244,1.791.326,1.547.977,2.931,1.791,2.687.733,2.524-1.3-.57-5.7.326-1.873-.326-.326-2.361.651-.814.977-.977.489-1.384-3.013,1.954-1.466-.733.407-2.361,2.28-3.257-.814-.977-1.792,2.117-.57-1.466-1.384.733.733-3.827-.489-5.944-.651-3.5-1.3-4.479,1.14-1.466,2.28-2.117,2.443-.9,1.71,2.769.244.977-.57,1.221-.977.733.081,1.14,2.2,4.886.326,1.629-.57,1.3.651,1.14,1.466.9,1.14,1.954H273.6v.977l.9.163,1.791,1.059Zm71.738-68.4,6.107,1.221h5.048l10.667-4.56,5.619,2.524,4.967,4.153,6.026.814,1.058,2.443,1.547,1.547,1.71,1.059,2.2,4.478,1.71,1.14-.163,3.339,1.059.977.9,1.629.244,1.791-.326,1.873-.652,1.629-.326,1.791-.244,1.384-.651,1.221-1.14.326-1.221-.163-1.14,1.14-2.687,4.723-3.583,5.211-18.321-7.328-3.013,8.306.407,24.347-1.954,1.873-1.14,3.339,11.726,2.361,8.794-2.443,6.84,10.83,2.361,4.56.651,11.644,2.687,8.713,6.351-1.71,5.619-4.153,1.873-.651,3.338-2.687,1.873-6.921,1.71-2.769.57-3.746,1.71-2.28,2.2-1.629,1.791.814,1.629.57-.489,2.769-2.117,1.629-1.3,2.361-1.221,2.687-2.85,5.293-1.547,6.189-.244,4.4.326,4.56,4.153-.9,3.827,1.221,3.99,2.443,1.3,4.8-.163,5.456,1.059,5.537,2.687,4.641,2.931,4.56-3.094,3.094L426.6,486.21l-3.827,1.058-3.827.163-2.769.651-7.491-.977-.489-1.3.9-1.792-.733-1.547-1.71-.488-4.234-2.117-5.781-10.423-4.153-3.664-2.117,2.2-1.791,2.687-2.687.57-1.791.814-1.873.651-7.084,1.384-3.664,1.384-3.746.733-2.769-4.316,1.14-7-4.723-.977-13.354,4.234-7.247,1.547-6.189.651L328.8,477.5l-2.687.814-2.606,1.791-2.2,2.117-2.361,1.14-2.85.488-2.769,1.222-1.954-.977-.651-1.059-.163-1.466-.733-2.036-1.059-1.71-2.117-2.85-1.221-1.954,1.791-1.466-.814-.977-3.339-1.3-3.013-5.048-2.2-.977-1.71.977h-.814l-.081-1.791-2.931-1.873-2.524.407-.733,3.013-.489,1.059-.814-.814.489-4.723,4.4-2.2,3.827-1.221,5.374,1.547-1.873-3.176-1.058-1.221-1.466-1.059-.9-.163-.977.57-.733-.407-.977-1.059-.814-1.14,2.687-7.41,1.547-3.339L299.246,438l-1.466-1.791-5.456-1.629-1.954-1.059,1.954-1.791,5.7-1.384,1.221-1.71-.9-2.117-2.036-.488-4.234-.082-.814-.57-1.547-1.873-1.059-.9v-1.14h1.71l-1.954-3.583,2.361-1.3,2.606-.814,2.524-3.583,5.293-1.466,2.524-1.384h-7.573l-1.791,1.059-2.769,4.153-2.036.407-1.3-1.547-1.14-3.013-.733-3.013.081-1.791,2.687-3.176,1.221-1.954-.407-.9-2.443.9-1.14-.977-1.059-.733-.57-.082-.57-1.466.57-1.384-.163-1.466-.651-2.769-.733-1.14-.081-.733,1.791-.081,2.524-1.221,2.687.081.244-1.954.733-1.71-1.059-1.384-1.466-.326-2.117-2.036,1.3-1.873,1.873-1.466-1.221-2.28-3.094-.57-.651-2.687.977-1.954,3.013-.489-1.71-1.954-.57-.977-.407-1.466-1.14.977-1.791,1.954-2.036.9-.407,1.14.081,1.14.9,1.384.163,2.687-.977,3.176.57,4.234-1.384,3.583-1.14,1.466-2.361-1.873-2.524-.081-2.443-1.71.57-8.631.814-3.176-1.466-.651.407-4.071-1.384-1.71-2.036.407-1.221,2.036-.326,2.606-.9,1.873-2.931.081,1.221,2.443,2.361,3.746.814,2.687-1.384,1.221.163,1.3,2.2,2.931-2.036.407-1.629.977-1.384,1.3-1.14,1.71v-1.221l-.407-2.28-.489-.9,1.792-3.909-3.746-6.27,1.14-3.094-.977-4.4-2.443,1.384-3.339,4.316-2.524.9-1.547.326-1.3.489-1.3.081-1.547-.9-.9-2.28-.244-1.466.651-.651,5.293.081,1.384-.977-.081-2.361-1.384-2.524-1.954-.977-2.036-.651-1.71-1.384-.651,1.954-.407,3.99-.733,1.873-1.466,1.384-.489-1.3.163-4.071-.244-3.909.326-1.059,3.339-4.234.651-1.466.489-2.036.407,1.547,1.221,2.769.9,1.3.651-.651.9.081,2.036.57-1.3-1.954-1.384-2.443,3.664,1.059,1.547-.407.977-1.873-3.338-.244-2.036-.9-.244-2.036,2.117-3.42-2.85-2.443.163-2.2,2.2-1.873,3.176-1.14-.814,3.99.326,1.059,1.71.407,3.257-.081.814-.57.9-1.466.163-3.664-.326-4.8.651-3.99,3.013-.977-.407,2.28.082,3.42.57,3.583,1.629,4.234-.814,1.466-1.221,1.384-.814,1.384v1.466l.814,2.361.163.651-.733.814-2.768,1.873.081,1.384.407,1.466.733.9.9-.407,2.2-2.036h1.629l3.664,2.524-2.687-5.781-.9-3.583L267.9,347.7l2.036,2.687,1.3.814.57-1.791.57-.489,1.3-.57,2.606-.651v-.977l-1.059-.163-2.443-1.059v-.977l3.094-.733,1.791-3.013.489-3.583-.977-2.687-1.14-.407-3.42-.081-1.629-.651-1.221-1.547-.407-1.466.57-.488,1.873,1.3.814-2.524-.9-1.466-1.954-.57-2.361.163.977-1.221,1.221-.9,1.384-.244,1.3.733,1.221.9,1.059.244.489-.489-.57-1.221v-1.221l4.8-.082,2.28.814.9,2.117-.651,1.3-1.221,1.384-.733,1.873.814,2.606,1.14-1.14,1.466-.814,1.221.081.57,1.3.163,1.14.57,1.059.163,1.059-1.466,1.873-.326.977v7.166l.407,2.117.977,1.466.9.57.489-.814.489-3.99,2.361-7.736.57-3.746.651-.9,1.547,1.059,2.28,2.443.9,1.791.651,1.629.977,1.059,1.873.081v-1.058l-.977-1.221-1.059-3.257-1.059-1.628-7.9-8.387-.489-.407.407-1.791,1.059.244,1.384,1.221,2.036,2.606,1.059.9,1.384.651h1.547l1.221-.733.081-1.059-.814-1.059-1.873-.489-2.443-1.14-2.687-2.524-1.14-3.746-.326-2.524h2.361l2.036.977,1.873,1.629,5.048,3.5.977,1.059,1.954,1.384,1.873.977,1.3,2.2-.57,2.2-1.3,1.466.326,1.221,1.222,2.443.163,1.466-.489,2.687,1.466-.977.57-1.221.326-1.3-.489-3.99.489-1.3,2.036-3.664,2.117-.977h2.036l2.2.244,2.443.977,3.176.814,2.2,1.466,2.769,2.769.163,3.5-2.036,6.921,1.547-.977,2.443-3.176,1.3-.244.9,1.384.57,2.361.244,4.56-.081.977-.651,2.2-.081,1.3.244,1.3,1.14,1.954,1.059,4.967-.326,1.466-2.117.651.407,1.384.489.9.733.651,1.059.489.733-3.664,1.3-2.117.651-2.28L335.4,352.18l2.606.814,2.687.326-4.4-4.967-1.3-2.687,2.606-1.14,2.361-.407,5.618-2.28,2.443-1.873Z" transform="translate(-44.518 -58.447)" fill="#23dba8" stroke="#23dba8" stroke-linecap="round" stroke-linejoin="round" stroke-width="2"/>
    <path id="KOR2503" d="M430.481,429.544l-.326,1.221.489,1.221.9.977,1.14.57.733,1.791-.488,2.768,3.908,1.14,4.153-.977,1.466-2.117,1.791.407-.163,1.791,1.547.9.244,2.85,1.3,4.234-.57,3.746-1.71,2.768-1.873,6.921-3.338,2.687-1.873.651-5.618,4.153-6.351,1.71-2.687-8.713L422.5,448.6l-2.361-4.56-6.84-10.83,14.25-3.908,2.931.244Z" transform="translate(-76.574 -79.546)" fill="#23dba8" stroke="#23dba8" stroke-linecap="round" stroke-linejoin="round" stroke-width="2"/>
    <path id="KOR2504" d="M648.335,545.351l-2.036,2.117-.9-.326-1.221.082v1.058l-.163,1.384-1.222,3.176v.977l-.326,1.547-2.931,1.71-7.41-1.954-4.153-.407-1.873,1.466-1.791,3.257-1.059.814-1.14-.977-1.629-1.059-2.28-1.873-1.465-2.931-1.873-1.873-2.036-.733-.733-2.931,1.71-2.524h1.954l2.117-.326.488-1.547.244-1.547-1.14-.407-1.221-.244,1.384-3.094,2.28-2.443L619.1,528.5l6.026-5.049,8.224-1.14,6.759-.407,5.211,3.746,1.629,2.85-.082,1.3-.651,1.058.082,3.99,1.058,1.629,1.384,1.14.244,2.524.081,2.687-.733,2.524Z" transform="translate(-113.496 -96.744)" fill="#23dba8" stroke="#23dba8" stroke-linecap="round" stroke-linejoin="round" stroke-width="2"/>
    <path id="KOR2505" d="M560.429,743.995H561l2.443-1.14.326.326-.244.814-1.221,1.547-1.384.489-1.221-.244-.977.163-1.384.651-.651.651-.814.163-.081-.57.407-1.059-.081-.814-.57-.57-1.059-.489.407-1.547v-.814l.57-.489.814-.244,4.153,2.2v.977Zm13.842-29.965.9.488,1.221-.488,1.954-.57,2.28-.081,1.3,1.221.326,2.036-.733,1.221.489.733-.57.977-1.3-.489-.489.651,1.059.244,1.058.9-.488.9-1.3,1.628-2.117.081-.977-1.221-.489-1.221-1.059-.082.244-.977-.326-1.058-1.71-.244-.57-.489,1.221-.977.244-1.14-1.222-1.059-2.361-.733-1.466.407h-.9l-.244-1.059,1.058-1.14,1.466-.407,2.036.814Zm-17.67,3.664-.407.407-1.954-.651-1.466-.977-.814-1.3.163-.814.9-1.466,1.71-1.3,1.629.407,1.954,2.117.733,1.221-.57.9H557.09l-.651.326.163,1.14Zm-29.4-10.911.651.489.733-1.71,1.547-2.443,1.221-.163.407,1.059,1.3,1.059.244,1.873.733,2.606,1.3,1.466.733,1.058-1.384.326-5.863-1.547-3.176,1.059-1.873-.244-1.873-1.14-1.14-2.28.9-2.443,1.71-2.28,1.14-2.117,1.221-1.547,2.036-.489.652,1.71-.9,2.524-.489,1.71.163,1.466Zm-8.224,7,1.547,2.769,2.524-.407,3.176-1.3,2.931-.57,4.4.733.9.326.652,1.791-.407,1.547-.733,1.629-.326,2.036.326,3.257-.081,1.873-.733.814-1.058.57,1.14,3.176-.57,1.628-1.954.326-1.954-1.14-2.036-.9-2.361,1.14-2.117.244-1.221-3.013-1.466-6.351-2.117-1.14-1.71,1.222-1.14,2.606-.407,3.257-.814,1.384-1.791.081-1.954-.651-1.14-.814-.814-1.384L507.42,726l-.244-2.036L503.593,712.4l-.489-2.85.326-2.687,1.547-2.85.977-.733.977-.163.814-.57.57-3.42.733-1.059,2.117-1.629,1.71-.814,1.954.651,1.71,1.466.977,2.036-.163,2.036-1.14,1.954-2.931,3.094.57,1.059.57,2.768.733,1.384,1.059.814,2.768.9Zm99.749-20.438.814,1.466.57,1.547-.081,2.117-.489,1.873-2.036,5.293,2.606-.9,1.221-.9.407.326.163,2.687-.163,1.791-.57,2.036-1.14,1.059-1.71-.733.651,2.117,1.71,3.583.326,2.361-.977.407-2.28-.733-2.361-1.3-1.466-1.058-.407,2.2-.407,1.14-2.28,2.606-.733,2.117,1.547,1.14,2.117.9,1.059,1.221-1.954,1.71-9.364,2.931-2.769.163,4.4-3.176-1.873-.9-.651-1.384.081-1.873.651-2.28-3.99,2.036-1.221-.814-.57-1.791.081-1.791.814-.814,3.257-.651.9-1.791.081-2.443.651-2.769-1.792-1.058-1.3,1.628-4.641,2.036-2.036,1.71-1.466-2.28-1.792-2.036-1.547-2.28-.407-2.931.9-1.873,1.628-1.628,1.954-1.3,1.71-.733,4.8-.977h1.384l2.117.9,1.628,1.14,1.792.9,2.361.163v-.977l-2.361-1.629-1.384-2.361-.651-2.687-.081-2.443,1.71.163,8.957-5.13-1.547-2.932.733-2.85,2.036-1.547,2.28.9.57,1.3v1.466l-.814,5.863.081.977.57,1.791Zm13.924-6.188L632,687.4l-.326-.651-.652-2.769-.977-1.058-.326-.814.163-1.058-.488-1.3-.651-1.3.326-1.14,1.384-.733,1.466-.163,1.3.407.9,1.954-.082,3.99-.57,3.257Zm22.718-92.5.57,6.27-3.257,6.514,1.954,3.908,7.98,1.221,3.338,2.606,5.537,6.351,6.6,3.664,3.013,2.28.814,4.4,2.85,2.768,3.664,1.3.489.488-.57,2.117-.244,2.85-.733,1.547-.9,1.3.733,2.117v.9l-1.384,2.931-2.117,4.4-2.28,2.769-1.466,3.094-.244-.57-2.606-2.687-2.28-3.013-3.013-2.362-2.28-3.257-.733-3.42-2.524-1.629-3.257-.163-3.013,1.221-2.443,1.792-1.873,2.28-1.3,9.364-1.873,2.769-1.954,2.443-1.059,1.954-.651-.57-1.14,1.792-3.909,6.921-1.791.081-.163-3.176.163-3.013-.9-.081-1.059,2.443-.977,3.827-3.176-.407-8.468.163-.488-2.931-.9-1.547-1.14,4.4-1.3.651-3.013-1.384-1.384-2.606-1.547-.163-1.954,1.466V664.2l-.57-.57-1.058.407-.977,1.466-.082,2.443L611,666.313l-1.547-2.28-1.791-1.466-2.606,1.058.57-2.2-1.059-3.176.489-1.221-1.3-4.071-.733-.489-1.466,1.384-1.628,2.524v1.71l1.628,3.42.9,4.153.57,1.466L604.074,669l2.2,2.931.326,1.466-.651,2.036,1.059.163,2.443.977-1.14.733-1.059.326h-2.687l-1.3-.326-.407-.814-.081-1.059-.407-1.058-1.221-1.3-.9-.733-7-2.443-1.954-.081-4.234.814-1.14.57.081,1.059,1.466,2.117-2.362.488-4.479,2.28-5.048,1.384-.651,1.954-.244,2.2-1.384,1.384v1.059l12.865-6.84,2.2-.163.407,2.769.814,2.036.244,1.873-1.058,2.036-1.629.977-2.524.407-2.524-.163-1.628-.651-.9,1.547.57.733,1.222.651.814,1.384.163,1.954-.163,3.339-.9,6.433,1.14,1.058,1.14-.326.9-1.3.407-1.547,1.71,2.117-1.792,3.176-3.257,4.234-2.85.9-3.909-.244.081-2.443h2.524l1.058-.244.651-.977-8.061-.977-1.629-.651-1.873-2.524-.244-1.3,1.3-.814,3.013-1.221-2.931-5.863-2.117,2.117-2.117,4.071-3.013.163-2.687-3.664-1.466-.9-2.931-.326-1.3.814-.651,1.873-.326,2.443.081,2.362-2.687-.489-6.026.244-2.361-1.3-.244-.814-.081-2.361-.082-.57-.651-.163-1.384.244-1.873-.407-3.013-.244-1.059-.57-.651-1.3.081-1.221.57-2.28-.244-11.644.244-1.873.977-2.036.57-1.466.163-1.954-2.036,2.443-1.628,2.769-2.036,2.117-3.094.244,2.361,5.618-1.629,1.059-3.5-.082-3.338,2.117-1.3-3.746-.814-1.547-1.466-1.14-.407,5.049-1.384,4.071-2.687,2.361-3.42.326-2.606-.814-.977.081-.814.733-1.954-1.547-1.3-.407-.326-.651v-2.931l-1.71-4.315-8.061-8.713-1.384-2.931-1.14-3.339-2.85-3.013-3.176-2.28-1.71-3.176-.57-8.387-1.3-4.071-2.606-3.094.651-3.42,2.687-2.768.244-3.909.814-4.234,5.374-6.433.814-4.4-1.873-1.221-1.3-3.013.244-3.99-1.466-3.745-.244-2.036-.489-1.71-3.257-1.384.081-3.99,1.791-3.746,1.14-4.886,1.466-4.8,2.036-3.746,1.629-3.583.326-4.886,1.466-4.153,2.931-2.606,2.769-2.931,2.443-5.211,1.3-.814,1.71.163,3.176-.977,6.433-3.42,1.221-3.338,4.723-5.048,1.059,3.5,2.606,1.547,2.361,1.873.163,1.3.489,1.3,2.117.814,3.909.326,1.629,1.384,2.117,1.384,3.664.326h3.664l3.339,1.059,2.443,2.687,1.71,3.257,2.85,2.036.733,1.466.489,1.384,1.954,1.221,1.71,2.036-.081,3.746-1.547,3.583,2.036,7.329,7.98.326,3.827-.489,3.746.57,3.5,1.71,3.257,2.443,3.664.733,6.921-3.5,3.5.733,3.176-4.56,3.013-2.361,1.059,8.794,3.257,3.99,3.99,2.524,4.723-.489,4.8-.9,4.234,1.3,3.99,2.117,4.8.163,4.234-3.339,1.792-.651,1.873-.244,1.791-1.547,1.466-1.954L643,592.865l4.967,1.221,3.827,1.791,3.583-1.221Z" transform="translate(-88.126 -101.183)" fill="#23dba8" stroke="#23dba8" stroke-linecap="round" stroke-linejoin="round" stroke-width="2"/>
    <path id="KOR2506" d="M237.771,864.84l-.489.57.244.814-.57.407h-1.221l-.244,1.059v.977l-.9-.163-1.954-3.257,1.547-.326,1.221.407,2.361-.489Zm76.379-2.687-2.931.489-.326-2.443,1.059-.651.977.163Zm48.612-13.191.814.407.814-.081.326,1.954.57.326.326,1.058-.57.326L363.5,852.3l-.733-1.14-.733-1.466.163-.977Zm-2.2-.407.326.651-.488,1.466.244,1.547,1.628,2.768.733.651.977.244.326.57-.163.733-1.791-.9-1.791-.407-.733-1.547-.326-1.3-.9-.814-.244-1.059.163-2.036.9.081,1.14-.651ZM82.489,850.1l-.407.733-1.466-.733-2.524-2.28-1.466-.9L76.3,845.7l.651-1.629.977-.9,1.466.488,1.14,1.384,1.791,3.827.163,1.221Zm188.993-7.41-2.931-.407.814-.977-.407-.9.407-.407.9.163.814,1.3Zm-4.723-10.83.814.081,1.059-.326H270.1l1.791.733,1.059,1.3-.244.733-1.059-.57-.163.57-1.71-.814h-1.221l-.651.733-.489.814-1.384.977-1.3,1.14-1.954,1.14-2.443-.081-1.384-1.791-.081-2.361L260,831.78l2.28-1.547h1.954l2.524,1.629ZM279.38,839.6l-1.3.326-.651-.407-.244-.733-1.3-.651-.244-2.036.814-3.664.244-1.954-.814-.814-.244-.733,1.059-.977.081-.57h1.059l2.2,1.14.326,1.547-1.221,1.059-.244,1.14,1.3,1.955.489.326.489.733-.977.57-.163.9v1.629l-.651,1.221Zm12.377-10.1-.326,1.058-.814-1.3-.733-.651.326-1.221-.082-.814L292,825.022l.814,2.117-.163,1.3-.9,1.059Zm20.357,2.606-.814,1.466-1.466.814-1.954.163-1.384-.733-1.14-1.059-.9.081-.407.814-.489-.326-.57-2.361.814-1.629.244-1.466.489-1.221.9-.9,1.873-.9,2.2.57,1.3,1.873,1.954,2.036-.326,1.954Zm-42.587-1.873-.651.488-1.954-.488-1.059-.977-.244-.651-1.14-.326-.163-.488,1.059-2.524-.081-1.221.733-.57-.733-1.547.407-.326,2.036.814,2.687.489,2.036,1.221.57.733.081,1.384-.9.733-.407,1.792-1.873.081-1.059.244.651,1.14Zm-81.672-9.771-1.384,1.466-.977.326h-1.14v-.733l.489-1.385.651-.57Zm168.229,3.827-.326.814-2.361-.489-2.28.57,1.059-3.339,1.3-1.221.407-.814,1.3-.733.57.082.57,1.384-.163,1.71-.733,1.3.651.733ZM272.459,819l1.14.489.651,1.3-.651-.082-.9.815-.57-.163-1.384.407-.814-1.3,1.059-.977,1.466-.489Zm-71.9-.489.733.489.489-.163.163,1.628-1.14,2.362-.9-.326-.733-.814-.651,1.466-.489-1.14-1.466-.733.9-.814,1.14.163.814-.163.814-.651-.081-.814.407-.489Zm-16.611-.733.163,1.954-.326.407-.489-1.222-.977.326-.407.9-1.384-.9,1.059-1.384,1.221-.407Zm207.885-.733-.57.407-1.059-1.14,1.059-.489.57.163Zm-125.4-3.338.733.651-1.71.9-1.221-.244-1.14.163V813.7l1.221.407Zm107.485.326-1.221.733-.407-2.524,1.791-.081Zm-6.189-2.036.489,1.058,1.547-.651.489.651-.57.407-.326.814-1.954,2.036Zm-169.858-2.931,4.479.9,1.873-.326.814.489-.081,1.71.163,1.14-.57.9-1.3.163-.733.57-.489-.244-.57-.814-.651.733-.814.163L197.3,813.3l-.9-1.3-.081-.814.57-.733v-.814l.977-.57Zm122.467,1.14-.977.407-.9-.081-.407-.651-.651-.407-.651-.733.081-1.384.407-.977,1.71-.977,3.176-.081,2.036,1.059.081,1.058-.651.9-2.524,1.873h-.733Zm-127.19-5.374,1.71.733,1.059-.651,2.443.326,2.606,1.466.244.9-.651.244-3.013-.814-2.606.489-1.791-.407-.57-1.873Zm61.641.733-.57.407-.733-.977.163-.9,1.3.57Zm47.472-2.036.977.244,1.058-.163,1.466.163,1.791.489,1.14.651-.244,1.14-.733.9-.326,1.629-.814.9-1.059-.244-1.221.244-1.221,1.14-1.14.244-.651-.9-.244-1.221-.733-.977-.977-.407-1.3.163-1.547.57h-1.221l-.977-.57-2.85-1.3-.163-.488,1.3-.163,1.3-.407.977-.57,1.059.163,1.14.57,1.466-.57,1.71-1.466,1.3-.326.733.57ZM328.4,802.3l.977.489,1.791-.57,1.3-.163.57.57,1.873,2.85-.733.163-1.14-.57-1.221-.326-.977.407,1.14.9-.9.9-2.28,1.791-1.3.57-.163-1.384.651-.977.814-.489-.489-.651-2.769-.57.326-.651-.326-.733-.814-.57-2.2-.163-.814-.326-.081-.489.977-.244.733-.488,1.221-1.466,1.547-1.3.977.9.814,1.221Zm-222.786-4.4-1.3.407-.489-.326-.814.814-1.71-2.85.814-.163,1.14.407,2.361,1.71Zm184.108,9.69,2.361,2.28.244.977.733,1.792-.489.407-1.221-.326-2.2-1.14-.489.163-.163.9-.57.326-1.14-.488-1.954-.489-2.443-.814V810.2l1.14-.977-.244-1.14-1.14-.244-1.384.326-1.629-.488-1.547-.977-.9-1.14-.326-1.71L276.2,801.9l.081-1.954.57-1.954.977-1.547,1.384-.651,3.013-.407,1.466.488,1.384.977,1.547,1.791,1.221,3.013.326,2.443.407,1.221.733.9Zm25.813-12.54-.651,2.524-.489.489.489,1.71-.977.977h-1.059l-.57.9-.814.651-.977.407-1.628-.489-.9-.733-.651-1.3.326-1.547-.244-.57-.814.489-.814.977-.57.081.081-4.153-.489-.651.9-.244.9.651,2.931.163,1.059.244.814.733,1.14.326,1.059-.081.9-1.058.57-1.466.407-.163Zm41.772,3.583-.489.163-1.873-.57-.489-.733.163-2.036-1.059-.57-.244-1.3.407-.326.651.163.57.977.814.652.326.9,1.384,2.2-.163.489Zm-52.847-2.768.081.977-.9.163-2.687-.814-1.059.244-.651.977-3.42,1.629-1.221,1.547-.326,1.71-.733.489-.814-.977v-1.628l-.244-1.3-1.221-.57-.57-.57,1.059-1.791.9-2.036,1.791-2.362,2.524-1.384,2.687-.652,1.629.244.57.977.163.977-.733.733.163.326,1.14.733.977,1.14.9,1.221Zm-201.452-6.758-1.791,1.221-.244-.651,1.221-2.036.651.244Zm224.9-2.524,1.3.651.407-.326.977,1.059,1.466,3.827-.57.733v1.14l-.57.57-.651.163-.57-2.524-1.14,1.221-.651-.489-2.2-5.048.651-.651,1.547-.326Zm98.12,7.573-.163.244-1.547-1.221-.489-.977.651-.733-.651-.651.733-1.3.326-.814v-1.059l.163-.977.651-.244.407.733,1.059.814-.814,3.664V793.1Zm-40.877-8.387.651.244,1.14-1.14,1.221-.081,2.85,3.013.57,1.547v.9l-.977,1.059-2.361,1.547-2.036.651-.733-.407-.081-1.384-.9-.9-1.3-.407-.57-.814.326-.651-2.2-1.547.407-1.14-.244-1.547.57-.407,1.873.977,1.791.488Zm-35.584,6.188-5.374.977-2.036-.244-1.466-.733-3.094-2.117v-1.14l.651-.9.163-.733-.488-.651-1.221-.814,1.791-1.384,2.036-.814,4.234-.814,3.99-.407,2.117.163,1.792.814,1.384,2.524-.407,2.931-1.71,2.362-2.361.977Zm-148.605-9.527,1.384.489-.326.651-1.466,1.058-1.059,1.222-.9.407-.244-1.873-.57-1.14,1.71-1.71.326-.977,1.14.244.733.651Zm227.509.814-.733.57h-.9l-.733-.326-.9.488v-1.547l.9-1.384,1.221-.57,1.059-.163.326.326-.733.9.326.733Zm-88.838-5.211-.9,1.14-1.71.651-.57-.9-.733-.244-.081-1.221.9.081.407-.814,1.547.9.326-1.3.9.326-.081,1.384Zm43.889-.488-.733.9,4.071,1.3.651,1.384-.244.488-1.059.733-1.222-.081-2.768.733-.977.407-1.547-1.547-.081-.977,1.058-.651.977.082-.814-1.221-.326-1.221-1.873-.489.57-.57-.163-.651.407-1.14,1.059-1.221,2.036-.163,1.3,1.14L382.224,776l.9.651.407.9Zm39.33,4.316-1.059.081-.651-.9-1.222-.651-1.873-.651-1.221-.977-.57-1.384-.652-.9-1.059-.57-.9-1.14.651-1.3,2.2-1.058,2.361-.326,1.629,1.221,1.954,3.827-.163,1.628,1.059.244.814.488.57.9-.244.977-1.628.489ZM234.27,774.13l.9.651.57-.163,2.931-1.873.081,1.384,3.827,6.188.244,2.2-.407,2.362-.651,2.361-2.524,5.456-1.058,1.629-1.3.9-.163-.488-2.2-2.117-1.059-.651v.977l-.489,2.524-12.3,6.677-1.466.57-5.456.407-1.466-.407-.326-1.3.733-1.14.977-.977.326-.814-.651-.977-3.746-2.28v3.257L206.91,795.3l1.629-5.211,3.664-4.234,3.583-.244,1.14-3.42.814-1.221,1.14-1.3,1.384-.814,1.221-.163.977-.733.326-2.2,1.547,1.873,2.036.244,1.791-1.221.814-2.361L228,772.338l-3.339-2.687.9-1.3,2.036-.081,2.2,1.14,1.791,1.466,1.384.733Zm174.255-5.863.407.244h1.547l.407-.407.9.326.57,1.059-.489.733-.733.326-.651-1.3-.814,1.547-.733.57-2.2.326-1.384-1.954-.814-.244.651-1.466.651-.651,1.384-.651.57.163.57.57.163.814Zm-72.633-3.5-.733.326-.814-1.954.814-.489,1.14,1.059Zm58.628-2.931.814.814.081.814-1.547.407-.57,1.466-.9-.244-.488-1.059-1.873-.326-.326-.9.57-1.14,1.466.733.489-.57,1.14-.407ZM201.047,775.025l-1.384.163-1.547-.407-.407-.814,1.547-.326,1.384-1.221-.163-.489-2.85-.651.733-.814,1.791-.326h1.873L203.49,769l.57-1.547-.57-1.547-1.3-2.117-.814-2.606.977-.733,1.547,1.221.977.977,1.547.9.081,1.384.57,1.14-.163,1.547-.407,1.791-.081,1.466-.733.814-2.117,1.791-2.524,1.547ZM175.235,761.1l.326,1.629-.244.651-.733.57-1.954.651-1.059-.081-1.059.489-.9-.407v-.9l.9-.163v-.407l-2.443-2.036.733-.244,1.059.57,1.3.244,2.85-1.71h.9l.326,1.14Zm23.288,8.143-1.221.57-1.059-.9-.489-5.456.489-3.013,1.059-1.384,1.629,3.583,1.384,2.036,1.059,2.2-.326,1.873-1.14.326-1.384.163Zm-7.9-9.364v1.629l-1.14-.489-.489-.9-.489.244-1.221-.244-.651-1.384,1.547-1.221,1.3.244.407,1.221.407.082.326.814Zm-64.979-2.2-.9.9-1.3-.977.407-.9.733-.244.244-.733,1.954-.081-.326.814-.814,1.221Zm88.186-2.28.163.651,2.036-1.629,1.466,1.547.244,2.117,1.466-.081.244.57-2.443,1.222-.651.9h-.9l-.977-.326-.733.326-.407.57-1.221.163-1.466.814-.9-.326.489-3.99-.977-.489-.733-.733.489-.57.9-.488.489-.651,2.443-1.792.57-.081.9.407.081.9-.57.977Zm-100.645-2.443-.651,1.059-1.14-1.547,1.547-.814.977.651-.733.651Zm7.491-3.5.407,1.14h1.14l1.466-.407.244.651-1.71,1.791-.326.9-2.036,2.361-.407,1.14-.9,1.384-1.14,1.547-1.3-.57-.814-2.2.163-2.117.733-1.873.814-1.71.977-1.466,1.059-.814,1.059-.244Zm86.883-.9-.733.733-1.059-.9.407-.977,1.3-.733Zm-116.523-2.28.326.407.977-.326v2.524l-.814,1.791L89.736,751.9l.407,1.3-1.14.57-.244.9-.9-1.14.163-.733-.244-1.14.9-.733.407.244,1.466-2.931.081-1.547.407-.407ZM425.3,767.615l-1.466.082-1.466-.733-4.56-4.641-.57-1.873.814-2.85.57-.733,2.443-1.873.407-.9.977-3.99-1.954-2.117.244-1.222,1.384-.651,1.629-.244,1.384.652.326,1.466-.651,1.71-1.547,1.466,1.3.326,1.221,1.873.9,2.28,1.059,3.99.163,2.28-.407,2.2-.977,2.2Zm-7.166-19.868-1.3,1.059-1.059-.57-.977-1.466.814-.977.977,1.14Zm-224.659,4.56-1.954,2.606-.9.651h-2.2v-.489l-1.873-1.14-2.036-.815-.57.163-1.14-2.606.9-1.221,3.746-1.547,2.361-3.176.814-.407.489.326,1.059,2.036,1.547,1.384.407.651.163,1.221-.244,1.221Zm15.308-14.576,1.221.57.733.814,1.14.57,1.547.163,1.3.244.814.814.489.9v1.791l.489,1.384v1.71l-.733,1.466-1.629.163-1.547-1.466-1.14-1.792h-1.384l-1.14.814-.977.081-.9-.651-.244-1.3-1.14-2.2-2.606-2.687-.489-1.3,1.221.326h1.059l.9-.489,1.384-.163,1.629.244Zm25.894,1.547-.489.081-1.14-3.094.977-.57.489-.733.57.244.9.9-.733.9-.733.407-.081.651.326.407-.081.814Zm-40.144-3.257.081,3.339-2.117-.651-.651-.407-1.059,1.466H189l-1.629-.326-.651.407-.326,2.117-.651,1.873-1.14,1.384-1.547.651-1.466-.163-1.14-1.058-.651-1.629-.244-2.117.407-1.954.977-1.384,1.466-.9,1.547-.57,1.791.651,2.28-.489,4.234-1.629h1.466l.489.407.326.977Zm188.1-3.094-.163,1.71-1.384.9-.489,1.059-.814-.244-.489-.489.57-.57-.081-.977.733-.651,1.14.244.977-.977Zm-168.637,5.7-1.547.407-1.466-.814-1.71-1.466-2.117-.814-1.629-.9,1.3-1.14,3.176-.489,1.873-.814.977-.814,1.221.57,1.3,1.873-.9,1.466.326,2.117Zm-2.036-18,.651.326.57.9.163.977-1.71,1.14.57,2.443-.244,1.466-.977.57-1.221-.082-.814.977v1.71l-.407,1.547-1.384.733-1.14-.081-.244-1.547-1.954-2.2-1.059-1.466-.9-1.71.407-1.221,1.873-.977,1.547-.163,1.221.733h1.221l.326-.977-.244-1.873,1.221-1.14,2.524-.081Zm203.488-2.85,1.058.57,1.221-.163.733.407-2.85,3.339-1.384.244-.977-.326-1.221-1.221-.163-.652.733-1.059,1.384-1.059,1.466-.081ZM239.97,723.889l.244,3.257-2.524,2.361-1.384-.489.814-.977.407-.9-.326-.57-4.153-2.28-3.827.57-1.629.9-1.954.244-1.547-.489-.733-1.059.651-.814,2.036-.081,2.687-.977.814-1.059.163-.651,1.628-.489.57-.977.081-1.14-1.059-1.384-.407-1.547,1.384-.733,2.28.489,2.28,1.221,1.629,1.628-.163.9-1.14.163-1.954,1.3-.244.733.244,1.629.814.326h1.873Zm-34.851-8.306.326,2.28-.407,2.117-.977,1.954-1.547,1.3-1.873.488-1.059-.407-.814-.733-1.14-.326-4.153.9-1.629.081v-.977l1.3-1.14,2.28-3.746,1.791-1.629,2.036.407h1.059l.489-.977.57-2.036,1.3-.326,1.384.977,1.059,1.791Zm20.276-.814-1.14.489h-1.629l-.651-1.466.326-1.466.977-.57h2.2l.733.326.081.651-.407,1.629Zm3.827-8.306.489.651,1.059.57,1.547,3.664-.489.9-2.036-.733-.489-1.629-1.14-2.117-.814-1.059,1.873-.244Zm-8.061.488-.244,2.036-.651-.407-.977-2.2.57-1.384,1.71-1.14.163.651Zm6.026-1.629-.733.652-.814-1.221.163-.9-.082-1.954-.814-.977.57-.407.814.244,1.059.9,1.059,1.384.081,2.2Zm-11.563-3.664.9.489.244.733-.244,2.2-1.629,1.3-2.443.57-.244.977.244.977-.163.407-2.361.57.244-.977.9-2.117.326-3.338,1.384-.57-.081-.9-.733.244-3.5.163-1.3-.081-.9-.407-.081-.733,1.384-.733.651-.977,1.221-.733.57-.651.9-.326,2.28.489,1.14,1.14.326,1.71.977.57Zm-3.5-9.12,1.14.489,1.629-.081,1.14.326.9,1.384.081,2.361-1.14.9-.733-.326-1.14-1.221-.57-.407-1.3.326-.163-.733-1.14-.163-.163-.407.9-.651L210.086,694l.244-.733.977-.652.814-.081Zm-15.227-5.618v2.768l-1.3-.9-.733-1.14.081-1.3,1.384-.488Zm21.09-1.384,1.221.733,1.059-.326,1.3-.651.733.407.326.651,1.384-.244.326,1.059-.9.9-1.14.081-.489.57v.814l1.384,1.466,1.221.57,1.3.082.733,1.058.407,1.384.651.9.244,1.222-.489,1.547-2.361-.407-1.14-1.791v-1.384l.244-.733-.814-.244-3.339-.57-.733-.651-1.71-.244-1.3-.9-.651-.814-1.384-3.257.814-1.3,1.629-.488,1.466.57Zm-9.608,6.758-.489,1.222-.733.244-3.42-.977-1.221.244-1.14-.977-.57-.082,1.059-5.048.651-1.466.9-.488,1.547-.489,1.384-.733.651-.977.977-2.2,2.361-1.466,2.606-.651,1.954.57-3.909,2.28-.9,1.3L210,684.152l.57,1.629,1.71,2.85-1.384.57-1.466,1.384Zm4.478-33.955-1.14.9-1.3-2.524v-.489l.977-1.547.814.407.651.733.244,1.466.407.733ZM198.36,646.533l.326.977-1.221,1.14-2.117.57.326-.814-1.221-1.14,1.384-.815-1.059-.814,1.629-1.3.814.733.244.57.651.244.244.651Zm203.65,11.481-.651,3.42,2.606,3.094,1.3,4.071.57,8.387,1.71,3.176,3.176,2.28,2.85,3.013,1.14,3.339,1.384,2.931,8.061,8.713,1.71,4.316v2.931l.326.651-.814-.244-5.293.081-1.71-.326-.651-.814-.326-1.14-.814-1.547-1.466-1.14-.326,1.14.244,1.954.244.814-.9,2.85-.57,1.059-1.14,1.384-4.886,3.827-2.687,1.221-1.954-1.628-2.443-4.967-2.036-.814-1.384,2.036-.733,3.094.163,2.687,1.221,2.769,1.954,3.583,2.28,3.094,2.117,1.384,1.384,1.873,1.384.651,1.628-1.059,3.99-3.746,2.768-.407,2.361.489,2.2.163,2.361-1.3-.081,3.094-.407,2.2-1.3,4.479-1.466,7.817-1.059,1.791-4.56,1.547-3.583-1.791-2.85-.651L404.7,749.05l-.814-.488-.977.488.977,2.036.814,2.2.9,7-.57,1.3-1.3-.733-2.117-2.2-3.094-.407-2.28-1.221-1.547-2.362-.57-3.5.733-3.339,1.71-3.257,1.221-3.094-.57-2.606-1.059-1.466-2.036-4.479-.57-.326-1.466-.163-.651-.651v-.814l.57-1.547-1.954-4.071-.326-1.547.081-.977.57-1.547.163-.733-.326-.9-.57-.733-.57-.163-.733.977-2.2,5.619-.9,1.221-5.456,1.873-2.606.326-5.537-.081-2.117.57,1.71,1.384,3.338,1.466,2.687.814v.977L371.8,735.7l-2.769,1.547-.489,2.117,1.14.9,2.443-.977,1.3.57.9,1.547-.326.489-.977.651,1.791,6.188,3.664,3.339,4.071,2.606,2.769,3.99-1.384-.244h-2.2l-.977.244,5.537,2.117.651,1.71.407,3.338-2.524,2.28-2.524-.163-1.547.407-5.863-3.664-1.873-.57-1.71.326-2.036.977-1.791,1.221-.733,1.221,1.791,3.746,1.873.407,1.059.733,4.886-1.3,2.687,2.28-6.107,5.619-2.2,3.094-2.361-1.058-3.664,2.768.407,2.769,1.629,1.791h-3.583l-5.293-7-1.792-3.664-4.8-5.293-1.466.326-5.13,2.687.489,1.629.407.651-2.117-.733-2.036-.407-1.71-.9-1.221-2.28-.163-2.28.814-1.384,2.85-1.71.977-.814,2.606-3.42,1.547-3.42.977-1.14,1.873-.9-.163,2.606-.651,2.524-1.873,4.56,3.827-.244,3.094-1.14,1.954-2.606-.081-4.641-.733-1.791-.977-1.059-.814-1.221-.081-2.361.651-1.221,3.746-4.153,1.3.733.9.977.244,1.221-.733,1.466.814,2.036,1.14,1.466,1.466.488,1.954-.733.814-1.14,1.792-3.746.977-1.628-1.791-2.687-.651-2.769-.9-1.3-2.443,1.873-2.85,1.221-2.28-1.954-3.176-5.13-1.873,2.85-2.606,6.758-1.791,2.2-1.873.733-1.547-.081-3.257-.651-1.466.489-1.466,1.3-2.28,3.094-1.059.9-4.723,2.769-2.524,1.954-1.629.977-1.629.407-.977.489-.163,1.3v1.71l-.244,1.792-.814,1.3-1.221,1.384-.57,1.71.977,2.036-7.084,7,.163,6.433-1.14,1.14-3.5-1.71-1.059,1.3-.57,1.547.081,1.71.733,1.792-1.71-.489-3.583-2.606-4.967-1.466-1.14-.651-.977-3.013.489-7.9-.489-3.094.733-1.954-.163-2.443-.814-2.117-1.466-1.059-1.384.407-1.466,1.3-1.059,1.71-.407,1.466.489,2.2.814,1.873.081,1.3-3.99,1.384.489,1.873,2.931,3.664-4.967,2.85-1.873,1.71,1.954.814.407.326v1.547l-.407.326-.814-.163-1.221-.733-.57-.163-1.71.244-.326.733-.081,1.14-.651,1.547-.977.733-3.827.977-1.466,1.14-.489,1.059-3.094,10.5-.326,1.547v1.791l-3.094-.651-5.944,1.954-1.466-.326-.244-1.791,1.221-3.827-.244-1.71-1.14-1.059-1.629-.326-3.338.163v-.977l.9-1.466.244-2.443.977.081.57-.407L260,795.138l.326-1.547-.489-1.629-.651-.489-.977-.326-1.873-.244-1.384-.407-.244-.814.733-.977v-2.036l.489-1.954-.244-.977-2.036.652.57-3.746,2.524-1.873,3.5-.733h3.176l-.57-1.221-.814-.977-.977-.651-1.221-.407,2.036-1.384,1.221-1.71.081-1.466-1.629-.9-.57.244-1.14,1.466-.814.57h-1.059l-1.71-1.059h-.814l-.814.651-.57,1.14-.407,1.384-1.14.244-2.361-.244-2.768.081-1.466.244-1.954.733-.244-2.443-1.059-1.466-3.094-1.547.081-.488-.651-1.221-.814-.814-.733,1.628-.9.57-1.059.163-.814-.326-2.687-2.524-.326-.163-.407-1.547.733-.733.489-.814.489.733h1.3l.9-.733-.489-1.628-3.42-1.71-2.687-1.954-.244-4.479,1.14-5.048,1.3-3.5.163-1.221-.081-1.384.163-1.221,1.059-.57,1.954.407.733.488.9,1.873,3.908,5.944-1.221,1.628-.407,1.547.244,1.629.407,1.71,2.687,7.491,1.629.977,6.351,1.058,2.769,1.873,1.466-.163,1.058-2.687-1.466.244-.733-.407-2.687-.57-1.221-1.954L246.81,759.8l.407-3.664-1.71.326-.814,2.2-1.3.163-.814-2.931-.407-3.909.977-2.28-.733-2.687,3.5-.326,5.374,1.14.733,1.221-.326,2.036v1.3l.244.9,1.384.9.733,1.059,1.71,1.058,2.28.977,1.466,1.3,3.094,2.2.57-.651-2.687-3.583,1.629-.326,5.456,3.013,3.664,1.221,2.769-.733-2.769-.407-2.2-1.466-3.827-3.339.9-1.221-2.769-2.036-4.234-5.374-2.361-1.14-3.176-.652-3.827.244-2.606-1.71-3.257.9-2.931-.977-.407-1.466,1.791-2.361,1.873-.733,3.827.57,4.886-2.117,5.863,4.316,2.036-.407,1.14.977.57.244-.57-3.013.244-2.768,1.547-2.036,3.176-.814,5.944,1.791,3.013.244-.977-2.036,2.036-.977,1.059-.244,1.3.081-1.873-2.2-2.931-.57-6.677.651.489-1.547-.489-2.117v-1.628l.489-1.059,1.221-1.71V719.98l-.977-2.361-1.791-.489-1.954.9-1.384,1.954-.163,1.3.9,2.606.163,1.465-.244.244-1.547,3.094-1.466,5.293-1.3,1.873-2.524.244V735.7l-.814-.57.489-.9.733-1.628.488-.814-1.71-.9-1.221.488-1.14,1.059-1.71.489-3.42-.733-1.059.489-.244,1.629h-1.71l-2.85.9-1.3-.733-.489-1.628.977-1.547,2.606-2.606.977-1.466.489-1.14.326-2.28-.407-2.361.489-1.14,1.629-1.466-1.547-1.3-1.466-2.606-.733-3.094.244-2.606,1.791-1.629,2.443-1.71.733-1.385-3.176-.733-1.466.244-1.547,1.547-2.28.977.244,1.547.57,1.791.081,1.466-1.791,1.71-2.361.163-2.28-.733-1.547-1.14,1.71-1.058-1.14-.814-.977-.977-.733-1.14-.651-1.466,1.466-.733,1.466.082,3.176.651-.326-3.339,3.583-3.583-.977-3.338-3.664-5.049-2.28-2.117-2.443-.814.977,3.5-.9,2.036-1.791.081-1.791-2.443,1.14-1.629-3.257-4.4-.489-2.606,1.873-2.2,2.606-.326,2.361,1.14,1.059,2.524,1.629-1.058.9-1.792,1.059-3.583.9,1.791.163,1.466-.326,2.931-.651,1.466-.081.9.244.977,1.059-.244.407.244.651,3.013.489.489,1.547.9,1.221.489,2.2.081.977.57-.733,1.792.163,1.71.9,1.629,1.384,1.384,3.257-7.328.326-2.524v-2.85l-.651-.977-2.443-.652-.977-.57-.9-.814-1.3-3.583-4.234-4.967-.977-2.2.244-.814,1.221-1.466.326-1.466-1.384-.977-.651-1.3.244-2.117-1.629.652-1.71.244-3.664.081,1.384-1.791,2.361-.57,2.687-.163,2.361-.57-.814-.244-.814-.733-1.059-.163.651-1.466,2.443-2.361.407-1.221-.814-3.094.407-2.443,1.14-2.443,2.85-4.316.733.733,1.873,2.443,2.28.733,1.14-.081-.326-1.14-2.443-2.85,2.687-.814,12.54-3.5,3.664.977-.733,5.781-.814,4.234-.163,4.316,3.176,1.059,3.827-.977,4.153-1.466,4.316-.651,1.71-1.3,1.873-1.14,2.2-.57L290.455,648l1.71-1.466,1.059-2.28-.244-1.629-.081-1.628,1.629-1.221,1.14-1.791-.081-2.117v-2.2l3.257-2.85,4.316.407,2.2-2.524,2.28.163,2.28.9,3.909,3.257,6.107,8.224,3.909-.082.326-2.2.814-2.117,1.3-1.221.9-1.628,3.827-.244,2.606,3.99-1.14,4.56.733,2.931,2.687,3.013-.163,5.211,3.094,3.257,4.8.733,3.664-2.2,3.909-.651h2.687l2.2-.57,1.954,1.547,2.2,1.3,4.8.081,4.641-.651H374l3.99-.57,3.746-4.071,4.723-2.606,8.224,3.013,7.329,5.944Zm-88.023,3.42-3.583,1.059-3.339.814-4.641-1.221-2.768,2.606,3.5,7.736,7,4.234,7.98,1.3,5.048-6.758-2.606-7.247-6.6-2.524Z" transform="translate(-13.985 -116.579)" fill="#23dba8" stroke="#23dba8" stroke-linecap="round" stroke-linejoin="round" stroke-width="2"/>
    <path id="KOR2507" d="M706.091,699.23l-1.058,1.3-.814-.651-.9-1.14-2.443-1.384-1.221-1.384.081-1.954.977-.977,1.3.081,1.221,1.71,1.14,1.221.9.489-.814.651-.163,1.14,1.791.9Zm13.191-16.53-.651,1.222-3.42-.082-1.792.326-1.384-.081-1.384.651-1.547.163-.081,2.2.977,1.547.163,1.873-.652,2.036-2.85,1.384-3.746-3.257-1.058-1.221-3.42,3.583-1.547,2.932-.488,3.013-.977.733-.651-1.547-1.547-1.628.407,4.641h-.977l-.407-1.058-.57-.244-2.524,1.71-.9-1.059L687.2,696.95l.488-3.176.977-4.071.163-2.28,1.059-1.954,1.954-2.443,1.873-2.768,1.3-9.364,1.873-2.28,2.443-1.792,3.013-1.221,3.257.163,2.524,1.629.733,3.42,2.28,3.257,3.013,2.361,2.28,3.013,2.606,2.687.244.57Z" transform="translate(-127.444 -123.432)" fill="#23dba8" stroke="#23dba8" stroke-linecap="round" stroke-linejoin="round" stroke-width="2"/>
    <path id="KOR2508" d="M753.845,597.118l1.058,1.792-.489,3.42-.244,4.071-.9,6.188-1.3,2.606-2.117,2.85L747.9,619.1l-.814-2.769-.814-3.664-1.629-2.687-1.791-.489-1.058,3.094,1.71.407,1.058,1.3.489,1.954.163,2.28-.57,2.117-1.3.489-1.466.163-1.058.977.163,1.14.163,2.932.57,3.094-2.28,3.909,1.059,1.466.814.9-.163,2.117-2.606.9-2.524,1.466-3.583,3.583-3.013-.081-.081.163-.489-.489-3.664-1.3-2.85-2.768-.814-4.4-3.013-2.28-6.6-3.664-5.537-6.351L703.034,620l-7.98-1.221L693.1,614.87l3.257-6.514-.57-6.27,3.094-2.524,3.339-1.954h1.954l.814-1.628-1.221-2.036-.651-2.2,4.316-3.339,5.456-1.954,4.479-.651,4.316.9,4.56,1.954,1.14,1.954.081,2.362.326,2.117,1.629,1.14,2.117.57,12.051-2.117,10.178,2.443Z" transform="translate(-128.54 -108.611)" fill="#23dba8" stroke="#23dba8" stroke-linecap="round" stroke-linejoin="round" stroke-width="2"/>
    <path id="KOR2509" d="M713.972,368.234l.652,6.6,1.791,6.6.651,6.6-.733,13.68-.814,2.931-3.99,4.886-1.547,2.687-.651,3.176-.57,19.3.407,2.606.814,1.466.814.57.733.814.733,5.456.977,4.153,1.058.733.651.9-.489,2.524L713.4,455.28l-1.3.651-1.3.407-2.117,1.792-.163,2.2,2.769,2.524,1.954,2.2,2.036,2.524,2.606.407,3.339-2.606,8.143-8.957,1.628-2.687,2.117,1.71.489,2.769.9,2.85.651,3.176-2.036,3.176-4.641,9.2-.326,4.153-1.384,10.911-3.339,9.446.163,5.944-3.42,10.26-2.524,4.967-1.059,2.524,1.059,2.768.977,1.222h-.081l-10.179-2.443L696.3,528.484l-2.117-.57-1.629-1.14-.326-2.117-.081-2.362-1.14-1.954-4.56-1.954-4.316-.9-4.478.651L672.2,520.1l-4.316,3.339.651,2.2,1.221,2.036-.814,1.628h-1.954l-3.339,1.954-3.094,2.524L656.973,535l-3.827-1.791-4.967-1.221-4.642,1.873-1.466,1.954-1.791,1.547-1.873.244-1.791.651-4.234,3.338-4.8-.163-3.99-2.117-4.234-1.3-4.8.9-4.723.489-3.99-2.524-3.257-3.99-1.059-8.794-3.013,2.361-3.176,4.56-3.5-.733-6.921,3.5-3.664-.733-3.257-2.443-3.5-1.71-3.746-.57-3.827.489-7.98-.326-2.036-7.329,1.547-3.583.081-3.746-1.71-2.036-1.954-1.221-.489-1.384-.733-1.466-2.85-2.036-1.71-3.257-2.443-2.687-3.339-1.059h-3.664l-3.664-.326-2.117-1.384-1.629-1.384-3.909-.326-2.117-.814-.488-1.3-.163-1.3-2.361-1.873-2.606-1.547-1.059-3.5.651-10.178-5.293-9.038,3.094-1.466,3.257-1.14,1.954-3.909,1.14-4.071.977-1.791,1.221-1.466.326-2.687-.081-2.117-.733-4.316,3.176-2.687,3.094.57,2.687.163-1.466-8.306-2.85-2.2-6.6,1.629-2.524-1.221-3.664-3.013-3.094-1.059-5.211,1.221-.733-7.573,2.85-2.524,1.873-3.664-1.466-2.524-.814-2.769.814-3.827.488-8.713,1.3-3.664,2.28-2.28-6.27-9.2-5.048-.9-1.466-3.664,1.954-.9,1.873-.326,1.873-2.036,2.85-3.909.733-1.629-.081-1.466.326-1.954,3.99-2.687,4.56-2.117,2.769-4.234,4.886,2.2,9.2,1.384-1.873-3.583-2.524-3.176.9-3.339,1.629-3.5,1.547-2.606,2.036,1.3,2.606-.163,2.117-2.85,2.2-1.466L549,340.874l3.99,1.384,3.745.326.9-2.687.651-2.524,1.3-2.117,1.71-1.629,1.628,1.873,2.2,1.547,3.013,2.606,1.954,3.909,4.56,1.466,10.83-4.479,1.873-6.351-1.71-1.547-.9-1.629,1.629-3.013L587.759,325l2.769-4.071,3.99-2.85,1.14-2.036,1.629-1.3,2.606-.9,2.2-2.036,3.257-2.769,3.013-3.176,1.221-.733,1.547.57,1.71-1.059,1.547-1.791,3.339,1.791,3.176,1.3,3.827.9,3.339.244.733-3.42.407-3.664-.814-3.99,2.28-2.85,3.5-1.71,3.583.326,1.791,3.176,2.443.57,2.28,1.14-.326,2.769.326,2.85,3.827-1.547,3.664-2.85,1.547.651,1.14,1.466,1.384.163,1.71-.651,5.049.814,4.723,2.2,3.42-.9,3.5-1.791,4.4.977,3.99,2.443,1.3,3.746-3.094,2.28-3.745-1.466-2.443.9-2.2,1.629-.9,3.99.57,5.293,2.687,3.99,4.234,2.036.9,3.42L681.157,332l3.013,1.3,2.769,1.547,9.446.733-.57,3.664,1.14,1.058.977,1.221-1.384,3.99-1.71,4.316.326,4.479,1.14,3.99.407,3.583-1.384,3.827,8.876,3.339,4.153-1.873,4.316.977,1.3.081ZM628.147,488.91l.733-2.524L628.8,483.7l-.244-2.524-1.384-1.14-1.059-1.629-.081-3.99.652-1.059.081-1.3-1.629-2.85-5.211-3.746-6.758.407-8.224,1.14-6.026,5.048.814,7.247-2.28,2.443-1.384,3.094,1.221.244,1.14.407-.244,1.547-.489,1.547-2.117.326h-1.954l-1.71,2.524.733,2.932,2.036.733,1.873,1.873,1.466,2.932,2.28,1.873,1.628,1.058,1.14.977,1.058-.814,1.791-3.257,1.873-1.466,4.153.407,7.41,1.954,2.931-1.71.326-1.547V496.4l1.222-3.176.163-1.384v-1.059l1.221-.081.9.326,2.036-2.117ZM903.861,231.436l-2.443,1.3-3.257-.651-3.175-1.954-2.117-2.524-.733-3.339,1.14-2.443,2.28-1.547,4.56-.814,3.094-1.14,1.547-.326,2.2,1.71-.163,4.071-1.384,4.641-1.547,3.013Z" transform="translate(-93.308 -40.302)" fill="#23dba8" stroke="#23dba8" stroke-linecap="round" stroke-linejoin="round" stroke-width="2"/>
    <path id="KOR2510" d="M331.236,994.233l1.466,2.28,1.954,1.466,6.188,2.524,1.873,1.873,1.3,4.641,1.221,1.791,1.466-1.384.326-.651.977,2.036-.651.651-1.221.407-.9,1.058.081.9.814,1.466v.814l-.407.814-1.384,1.873-2.28,2.769-4.4,3.5-1.384,2.85-1.873,3.42-.163,1.384-.814,2.036-3.176.326-1.221.651-3.42-.245-4.886,3.909-13.028,2.361-4.4,3.746-5.293,1.14-5.781-.57-6.514,1.221-5.374-1.629-12.3.163-3.827,1.791-2.2,4.072-2.117.407-2.036-.977-2.931-4.8-3.908-1.3-3.827-3.99-1.3-4.8,2.28-6.352,2.2-3.827,1.3-1.384,4.478-2.687,3.827-6.677,3.5-.9,1.629-3.5,6.026-2.117,13.191-3.746,3.257-2.85,12.54-1.3,8.55-3.746,2.117.57,10.341-1.629,6.107-.57,3.99.733Z" transform="translate(-45.484 -184.331)" fill="#23dba8" stroke="#23dba8" stroke-linecap="round" stroke-linejoin="round" stroke-width="2"/>
    <path id="KOR5129" d="M412.121,395.029l-2.524,5.456.244,2.687-1.628,4.641-.57,4.967,9.527-1.954,9.771.651-.081,1.71-.651,1.547-.244,1.221.407.977.244,1.629-.244,1.71-.57,1.547-2.931-.244-14.25,3.908-8.794,2.443L388.1,425.564l1.14-3.339,1.954-1.873-.407-24.347L393.8,387.7l18.321,7.328Z" transform="translate(-71.894 -71.819)" fill="#23dba8" stroke="#23dba8" stroke-linecap="round" stroke-linejoin="round" stroke-width="2"/>
    <circle id="_0" data-name="0" transform="translate(311.809 260.347)" fill="#23dba8" stroke="#23dba8" stroke-linecap="round" stroke-linejoin="round" stroke-width="2"/>
    <circle id="_1" data-name="1" transform="translate(366.203 263.36)" fill="#23dba8" stroke="#23dba8" stroke-linecap="round" stroke-linejoin="round" stroke-width="2"/>
    <circle id="_2" data-name="2" transform="translate(415.06 476.049)" fill="#23dba8" stroke="#23dba8" stroke-linecap="round" stroke-linejoin="round" stroke-width="2"/>
  </g>
</svg>
