<svg xmlns="http://www.w3.org/2000/svg" width="1367.828" height="845.85" viewBox="0 0 1367.828 845.85">
  <g id="MultiColored-United-States-Map" transform="translate(975.166 509.75)">
    <g id="Layer_1_1_" transform="translate(-973.462 -506.675)">
      <path id="Контур_115" data-name="Контур 115" d="M-857.032-504.838v7.669h3.485l-3.485,9.759,3.485,17.43L-864.7-451.5h-4.88l2.09-9.412,3.138-6.623-1.394-10.631h-5.578l-5.229-4.357-3.138.349-24.051-16.036-2.44,8.018,2.44,12.025-2.44,10.98,3.138,5.229-3.138,8.714,3.834,1.744,2.789,3.138h-4.879l-1.744,4.88,4.184,3.138-1.395,4.533-2.789,3.834h-3.138v3.485l-2.09,10.457-5.925,16.382-4.533,12.548-4.533,12.2-5.229,11.852-4.184,10.108-2.789,7.319-5.229,7.668-4.184,3.138-1.394,7.319-6.274,5.578,2.44,9.759-2.44,6.973v30.325s-6.623,9.063-6.274,10.457-11.5,18.126-11.5,18.126v7.669l7.668,23.7s-4.183,4.533-4.533,5.578-3.138,9.412-3.138,9.412l3.485,4.879-3.485,4.533,4.879,8.367,7.319,9.759-1.045,12.9,3.485,4.879,3.834,4.53,5.229-6.274,1.744,10.108,2.09,9.412-5.578-3.485-4.533-.349v14.988l6.274,5.925,5.229,6.274v5.578l-4.879,4.184L-952.552-96l7.669,6.662,1.395,6.973,3.138,7.668,4.183,8.714,4.533,3.138-.349,5.229-2.09,2.44,5.229,6.973-5.229,13.942,8.367,6.623,7.668,1.394,16.731,8.018,2.44,7.319,3.485,3.138,12.548,3.485,2.44,6.973-1.395,3.485h6.623l8.367,9.759,8.018,12.9,1.744,25.445L-792.2,60.2v5.578l93.768,58.911L-620,134.8l2.09-14.292,44.619,4.879,6.973,4.533V134.8l38.342,40.086v3.834l4.533,5.925-1.744,9.412,4.184,7.319,33.114,23.7h4.88l6.274-6.623,6.973-16.035,8.714-.349,3.834-4.879,3.485,4.184,8.018,1.744h10.807l6.973,4.53v4.533l6.274,6.274,9.063,6.623,3.138,11.154,7.319,17.081,10.457,12.548V269l4.184,6.274h5.229l2.09,6.274v6.623l2.789,9.759,8.714,17.43,24.051,10.807,16.036,3.138,8.018,5.925,3.485-3.138,4.53,3.138V330.7l-5.229-5.229-6.623-23.005,3.138-9.063-2.789-4.533,4.184-4.183,2.09-6.973-2.09-4.879,2.789-3.485,4.53.349,3.138-4.533v-4.53l3.834-1.744,3.485,2.091,1.394-6.973,4.184-.7,5.578-1.744-3.834-5.229,9.063-3.834,2.09,3.485,8.367-3.485,12.2-6.623,7.319-4.183,2.44-6.274,6.973-5.578-2.789-4.879.7-4.184,4.879-2.091,2.789-.7v5.578l4.634.7,12.8-3.485,26.84-6.274,30.327,6.973v-6.973l5.578-2.789,2.44,2.44,5.925,1.395,4.184,6.623,7.319,1.394,5.229,7.319,9.759,3.485,4.183-4.879,8.018-1.045,2.44,4.184,3.138-2.091,1.395-8.367,5.229-.349,2.09,3.834,11.5,5.229,1.394,4.53,5.229-2.44,4.879-2.44-19.87-11.852,2.789-4.879,6.973-7.319,3.485-1.394-2.091-5.578-13.247,8.714-2.44-5.578-5.229-1.045-9.759,2.44-3.138-5.229,3.138-5.578,6.623.349L-94,187.43l7.319-4.183,12.548-5.578,6.623.7,5.925,1.045,2.789-3.834,3.834,2.44,5.578-12.2,1.744,8.714,3.138,5.229,5.578.349,4.183-4.533,6.274-.349,2.789-3.834H-20.1l5.229,1.744,11.153-3.485v4.533l5.578.349,10.457,4.183,4.184-2.44,6.623,3.485-2.44,4.53,7.319,4.533V194.4s12.548-7.668,12.2-6.623,9.759-5.578,9.759-5.578l5.578-6.274,8.714-.7L77.5,182.2l6.973,8.367,8.018,7.668,3.485,2.789,5.578-.349L104.7,206.6l3.834,5.925,2.09,8.018-1.395,7.669-2.44,6.972.349,6.623,3.485,4.533,2.44-2.44v-4.184l4.184.7,2.44,3.834-1.394,6.274-3.485,3.485,1.744,4.184,4.879,4.53,3.485,5.925,2.789,3.834h3.485l4.533.349v5.925l4.53,5.229,4.533,4.879,2.789,6.274v3.834l8.714,2.091,5.925,4.533,3.834,5.578,3.138,3.834,5.578.7v5.578l10.457-3.485,6.973-5.229-1.744-11.154,5.578-7.319-3.138-10.108,3.138-10.807L190.8,262.72l-9.412-13.6L176.5,234.484l-5.925-3.834-1.744-8.714,1.045-8.018-8.714-12.2-6.623-2.789L152.8,193l-5.925-6.623-5.925-7.668L141.3,168.6l-4.879-5.925-1.045-6.973-2.789-4.184-1.744-12.548-1.394-12.2,3.834-12.548,4.184-8.714,4.184-6.274,2.09-6.973,6.623-9.412,8.018-6.623,12.548-9.063,2.789-7.319,4.53-5.229,4.184-11.153,6.274-10.108,7.319-5.578,10.807-2.09,3.485-3.485,2.789-10.457,6.623-8.714L226.7-4.986l4.53-2.44,7.668-2.789,5.578-4.184v-4.184s-4.879,2.789-5.925,3.485-9.063,1.744-9.063,1.744l-3.138-4.533,5.578-.349,3.834-2.789,2.091-5.578-3.138-4.184s0-2.789.7-3.834,4.183-1.744,4.183-1.744l1.744,3.138,3.138,1.045,4.879-2.44,4.184-5.229v-11.5l-3.485,1.394-2.44,3.834-4.533-5.229-4.879,2.09-5.925,1.744L229.84-51l4.879-3.138,6.973-4.184,6.274-3.138v-4.879l-3.834-5.578-.7-5.925-3.485-3.138-5.229-.349-4.53,2.09-4.879-1.395-.7-5.578,4.53-.349-2.44-2.789v-3.485l3.485-3.177-4.184-5.886.349-6.274-1.744-5.229-5.925-2.44-4.533-.7-4.184-3.485,3.138-2.789h6.274a8.885,8.885,0,0,0,0-3.138c-.349-1.048-2.09-5.578-2.09-5.578l-3.138-8.018v-16.734l3.485-5.578,4.184-4.53,3.138.349-.349,6.973-3.834,8.018,2.789,6.973,1.744,8.367,1.395,7.668,5.925,1.744h4.184l.349,7.668,6.973-1.395-.349,6.274-2.44,8.018v9.72l4.88-9.024,2.09-8.018,1.394-7.668L253.546-127v-16.731l-5.229-6.623-5.229-2.789-3.485-5.925-3.485-5.578-3.485-4.879,2.091-6.274,3.834,5.925,5.578,4.879,6.973,3.485,2.44,4.184,4.879-4.879,4.879-9.759,4.184-9.412v-23.7l-2.789-2.44-4.879.7,2.44-5.229,8.018-1.045,7.319-4.184,6.623-4.184,12.2-5.229,5.925-8.714H296.77s-4.879,1.744-6.274,3.138-9.063,5.229-9.063,5.229l-6.973,2.789-5.229,3.485-3.138-2.44,3.834-4.533,6.274-6.623,6.973-5.229,8.018-3.485,12.9-3.138,8.367-4.184,4.183-3.138V-261.2l4.184-1.744,1.395,3.485,2.44,2.789,6.623-9.063,6.274-2.44,1.395,3.485,4.184-3.485,6.274-2.09v-6.274l-4.184-8.367-3.834,3.834,2.09,3.834v4.533s-4.184.7-5.229,1.045-4.88-2.789-4.88-2.789l-5.229-6.973-8.714-1.744,2.789-9.063s2.789-5.578,2.09-4.533-3.485-6.973-3.485-6.973l1.045-6.623,3.138-11.154,2.44-8.018-1.744-5.925,5.578-5.925,3.834,1.744,2.789-4.88,6.973-1.395,2.789-4.88,1.744-5.925,2.44-5.229,4.879-1.045,4.184-4.88L364.4-372.4l5.229,2.09,4.184-4.88,7.319-5.229,4.88-7.319,4.53-1.394s-2.44-4.184-3.485-3.834-2.09-5.578-2.09-5.578l-5.229-1.395-4.879-1.394L371.717-409s-6.274-4.184-7.319-3.834-6.623-18.475-6.623-18.475L351.5-452.92l-13.246-8.367-14.988,9.412-4.88-3.834.7-4.879-3.834,1.395-9.412,32.068,2.09,4.533-2.44,6.274s2.09,12.9,1.744,13.942-1.744,6.973-1.744,6.973l-3.834,4.879,1.395,5.925-3.834,4.88-3.485-2.09-5.925,3.138-3.138,6.274.7,5.925-73.9,16.732-18.126,19.171-2.789,8.367s-8.367,8.367-9.063,9.412,1.395,3.834,1.395,3.834l3.485,2.789,1.045,7.668-3.138,5.229s-4.533,3.485-5.578,4.88-5.925,4.533-5.925,4.533l-15.337,6.274-5.925-4.184-11.5,2.09-12.548,3.138-2.09,8.714,5.578,6.973-1.744,6.973-6.623,7.669-14.292,12.548-4.184,1.045-5.229,5.925-7.319,4.879-8.018,4.88-5.925,1.744-9.759,11.852-5.229-2.44-9.759,6.973-11.5-1.744-11.153-4.88-5.229,1.045-.349-6.274,3.138-5.578,2.789-3.485v-5.925l3.485-3.485s2.789-11.5,2.091-10.458,4.879-.349,4.879-.349L45.1-254.23l-9.063-26.84-9.412-2.44-12.9,16.382L7.8-269.916,6.76-277.934l6.973-5.925s3.834-5.229,3.138-6.274-.7-14.641-.7-14.641L13.385-310.7l-.349-5.925,2.789-3.485-8.714-5.578-11.153-2.09-2.09-3.834L-18.68-335.1l-8.018,9.412,1.395,4.533-5.578,5.925v8.018l-6.623,6.274s-4.184-3.138-3.834-4.184-4.53,3.138-4.53,3.138l-3.834,6.973s.7,9.412,0,10.458-2.44,9.759-2.44,9.759l1.045,8.714,3.834,12.548,5.578,12.548-1.045,14.988-2.091,13.942-8.367,12.9L-63.3-192.879l-8.714-3.834-4.184-11.5-4.879-3.834s.349-9.412,0-10.458S-86.3-249-86.3-249s4.184-9.412,3.485-9.412-1.045-11.153-1.045-12.2,4.879-8.018,4.879-8.018l.349-10.807,3.485-5.925,3.834-9.412,1.744-8.018-4.183,4.88-4.184,6.973-6.274,4.533-5.229,7.669-3.138-1.045,2.09-8.018,5.578-6.973L-81.426-310l3.485-9.759,3.834-6.623,1.045-8.714,3.834-.349.7,4.88,3.485-4.533h3.834l.349,4.533,3.485-1.395,1.744-5.578s10.457-1.045,9.759-.7,4.183-4.184,4.183-4.184l5.925-3.138,11.852,1.045,3.485,3.834,3.138-4.88h7.319l6.623.349,8.714-3.834-11.5-4.184-8.714-3.485-11.5,1.045-2.09-5.925v-5.578s-9.412,4.184-10.458,3.834-11.5,2.44-12.548,2.09-8.018,4.184-8.018,4.184-4.533,4.184-5.925,4.533-7.319,0-7.669-.7-7.668.349-7.668.349l-9.063-7.319-7.669-2.789h-6.973l-3.834,1.394,2.091-8.367,2.44-6.274,8.018-5.925-10.108-1.045-4.879,7.668-5.925,3.485-6.274,6.274-7.319,3.834-7.319,2.789-4.184,4.184s-4.879,4.184-5.925,4.184-8.714-1.744-8.714-1.744l-8.018,2.789-.349-6.973,2.789-3.138-4.533-1.045-8.714,4.533-7.668,4.184-9.063-3.138,13.246-13.942s13.247-10.457,12.548-10.457,10.458-6.623,10.458-6.623l6.973-4.88,11.852-7.319s-7.319-2.44-8.367-2.44-13.247,2.09-13.247,2.09l-6.973-3.834-15.337,5.578-8.714-2.789-4.879-4.53-3.834,1.045s-5.578-7.319-6.623-8.018-16.382-2.789-16.382-2.789-9.759,3.138-9.759,2.44-11.5-5.578-11.5-5.578l-5.229,2.09-3.138-3.834.349-5.229-1.744-11.5-6.623-1.395-2.09,9.759-43.571,2.09L-418.5-428.869l-38.342-3.485-84.007-9.412-141.513-21.4-72.711-16.3L-811.482-492l-46.011-12.445Z" transform="translate(973.462 504.838)" fill="none" stroke="#23dba8" stroke-miterlimit="10" stroke-width="2.835"/>
    </g>
    <g id="Layer_2" transform="translate(-909.317 -508.771)">
      <path id="Контур_123" data-name="Контур 123" d="M-853.073-430.327l17.19,9.806,3.071,15.782,9.1,7.555h19.272l10.649,5.071h47.68l26.985,6.39,20.18,4.76v-11.151l3.751-16.248,3.855-17.231,4.269-20.206,5.873-21.37V-477.31l-72.183-16.067L-801.4-508.771l.608,9.78h3.488l-3.488,9.754,3.488,17.412-11.156,18.5h-4.88l2.091-9.417,3.138-6.623L-809.5-480h-5.578l-5.081-6.442-3.283,2.432L-847.5-500.052l-2.44,8.02L-847.5-480l-2.44,10.97,3.138,5.226-3.138,8.719,3.834,1.759,2.789,3.131h-4.879l-1.744,4.864,4.183,3.156-4.183,8.357h-3.136Z" transform="translate(853.073 508.771)" fill="#23dba8" stroke="#23dba8" stroke-width="1"/>
    </g>
    <g id="Layer_4" transform="translate(-955.589 -430.327)">
      <path id="Контур_124" data-name="Контур 124" d="M-739.518-312.18v5.976h5.925v8.9l-9.392,13.324-2.484,7.425-8.383,3.441-4.45,15.808,5.925,3.958-2.535,4.45-3.389,5.925-5.1,23.311-7.658,35.755-168.862-43.983v-12.082l2.442-6.96-2.442-9.78,6.276-5.562,1.395-7.322,4.181-3.156,5.229-7.658,27.189-70.4,2-10.737,17.19,9.806,3.071,15.782,9.1,7.555h19.272l10.649,5.071h47.68Z" transform="translate(939.918 361.544)" fill="#23dba8" stroke="#23dba8" stroke-width="1"/>
    </g>
    <g id="Layer_5" transform="translate(-786.805 -477.31)">
      <path id="Контур_125" data-name="Контур 125" d="M-553.18-445.12l-4.76,31.512,4.76,13.35-2.38,6.416,8.486,11.849,6.416,14.825,10.892,5.925-5.925,18.783v4.942l-4.967,9.392,5.951,3.441,7.4-5.925,4.45,3.467v13.091l3.958,7.658-2.975,5.433,6.934,2.949,2.458,13.842h7.891l9.392-2.458,10.866,2.458h7.917l3.958-5.433,5.744,11.513-12.677,80.876-143.745-28.149,12.833-58.807,5.925-10.375-5.925-3.958,4.45-15.808,8.383-3.441,2.484-7.425L-585.6-338.5v-8.9h-5.925v-17.127l8.538-38.213,4.088-18.912,5.123-17.929v-10.142Z" transform="translate(623.138 449.725)" fill="#23dba8" stroke="#23dba8" stroke-width="1"/>
    </g>
    <g id="Layer_6" transform="translate(-648.441 -323.164)">
      <path id="Контур_126" data-name="Контур 126" d="M-358.071-62.053l-5.381,29.8,172.36,23.026,10.271-132.284-161.856-18.913Z" transform="translate(363.452 160.419)" fill="#23dba8" stroke="#23dba8" stroke-width="1"/>
    </g>
    <g id="Layer_7" transform="translate(-721.607 -472.705)">
      <path id="Контур_127" data-name="Контур 127" d="M-244.975-272.628l11.047-129.723-84.757-9.443-142.866-21.551-34.462-7.736-4.76,31.512,4.76,13.35-2.38,6.416,8.486,11.849,6.416,14.825L-472.6-357.2l-5.925,18.783v4.942l-4.967,9.392,5.951,3.441,7.4-5.925,4.45,3.467v13.091l3.958,7.658-2.975,5.433,6.934,2.949,2.458,13.842h7.891l9.392-2.458,10.866,2.458h7.917l3.958-5.433,5.744,11.513,2.717-17.49Z" transform="translate(500.773 441.081)" fill="#23dba8" stroke="#23dba8" stroke-width="1"/>
    </g>
    <g id="Layer_8" transform="translate(-746.858 -238.977)">
      <path id="Контур_128" data-name="Контур 128" d="M-516.756-2.412l-31.409,163.8,129.386,20.051,17.9-133.345-48.872-6.52,5.381-29.8Z" transform="translate(548.165 2.412)" fill="#23dba8" stroke="#23dba8" stroke-width="1"/>
    </g>
    <g id="Layer_9" transform="translate(-881.484 -271.136)">
      <path id="Контур_129" data-name="Контур 129" d="M-634.8-30.61l-71.355-13.971L-775.94-62.769l-24.894,99.3,107.149,157.483,3.7-11.125-2.458-1.552,2.768-13.583-1.526-6.778,1.837-3.389h8.641l1.863,4.605,4.321,1.863,8.331-30.865Z" transform="translate(800.834 62.769)" fill="#23dba8" stroke="#23dba8" stroke-width="1"/>
    </g>
    <g id="Layer_10" transform="translate(-973.454 -296.946)">
      <path id="Контур_130" data-name="Контур 130" d="M-856.583-85.4l-24.894,99.284,107.152,157.483v9.573l1.545,7.1,2.779,2.471V193.6l4.323,1.544V200.7l-4.942-1.545-5.868,6.484-4.631,12.97-4.015,4.631h-4.631l.587,3.679.647,4.041s3.4,5.249,4.015,6.484,0,4.942,0,4.942l-7.674,2.779-64.835-6.993-1.744-25.445-16.382-22.659h-6.623l.934-4.8-1.979-5.658-12.548-3.485-3.485-3.138-2.44-7.319-16.732-8.018-7.669-1.395-8.367-6.623,5.229-13.942-5.229-6.973,2.09-2.44.349-5.229-4.533-3.138-7.319-16.382-1.394-6.973-7.669-6.662,3.138-9.72,4.879-4.184V68.414l-11.5-12.2V41.225l4.533.349,5.578,3.485-3.834-19.521-5.229,6.274-7.319-9.412,1.045-12.9-12.2-18.126,3.485-4.533-3.485-4.879,3.138-9.412,4.533-5.578-7.668-23.7V-64.4l11.5-18.126,6.274-10.458v-18.229l99.1,25.924Z" transform="translate(973.447 111.211)" fill="#23dba8" stroke="#23dba8" stroke-width="1"/>
    </g>
    <g id="Layer_11" transform="translate(-792.186 -75.181)">
      <path id="Контур_131" data-name="Контур 131" d="M-458.524,325.057l-26.364,185.037-54.59-7.037-93.76-58.911v-4.528l7.658-2.768v-4.942l-4.01-6.494-1.242-7.71h4.631l4.036-4.631,4.631-12.962,5.847-6.494,4.942,1.552v-5.562l-4.321-1.552v-3.079l-2.768-2.484-1.552-7.089v-9.573l3.7-11.125-2.458-1.552,2.768-13.583-1.526-6.779,1.837-3.389h8.641l1.863,4.605,4.321,1.863,8.331-30.865Z" transform="translate(633.238 -305.006)" fill="#23dba8" stroke="#23dba8" stroke-width="1"/>
    </g>
    <g id="Layer_12" transform="translate(-617.472 -188.474)">
      <path id="Контур_132" data-name="Контур 132" d="M-163.938,108.878l47.863,4.864L-122.387,245.9l-26.157-.569-156.785-19.611,17.9-133.345Z" transform="translate(305.328 -92.372)" fill="#23dba8" stroke="#23dba8" stroke-width="1"/>
    </g>
    <g id="Layer_13" transform="translate(-643.836 -55.13)">
      <path id="Контур_133" data-name="Контур 133" d="M-171.66,362.249l-15.316,165.426-99.142-13.091,1.863,6.753-44.629-4.89-2.1,14.281-23.828-3.053,26.364-185.037Z" transform="translate(354.809 -342.638)" fill="#23dba8" stroke="#23dba8" stroke-width="1"/>
    </g>
    <g id="Layer_14" transform="translate(-463.326 -433.975)">
      <path id="Контур_134" data-name="Контур 134" d="M-16.022-270.077l171.868,9.029v-9.029L150.7-285.471l-1.811-37.411-4.554-3.415-1.811-24.009,3.182-2.717-2.924-8.59L28.788-365.105l-36.247-3.286Z" transform="translate(16.022 368.391)" fill="#23dba8" stroke="#23dba8" stroke-width="1"/>
    </g>
    <g id="Layer_16" transform="translate(-470.984 -335.661)">
      <path id="Контур_135" data-name="Контур 135" d="M149.131-174.843l-6.054,10.4v4.088l10.4,7.891v56.686h-5.2v8.59l5.2,6.572-4.346,7.606,2.1,13.221L133.556-73.01h-6.339l-7.27,4.605-4.967-7.244-8.615,2.639-3.156-8.072L-30.4-87.188l7.658-96.684Z" transform="translate(30.396 183.872)" fill="#23dba8" stroke="#23dba8" stroke-width="1"/>
    </g>
    <g id="Layer_17" transform="translate(-476.081 -238.977)">
      <path id="Контур_136" data-name="Контур 136" d="M146.214,24.6l.543,4.476,2.665,5.355,6.83,13.66,3.182,12.238v7.244l3.622,4.088v5.873l2.277,9.521,5.433,9.055,4.967,9.521L6.427,100.222,7.9,69.46-39.961,64.6l5.1-67.009,133.6,6.106,3.156,8.072,8.615-2.639,4.967,7.244,7.27-4.605h6.339Z" transform="translate(39.961 2.412)" fill="#23dba8" stroke="#23dba8" stroke-width="1"/>
    </g>
    <g id="Layer_18" transform="translate(-434.53 -136.342)">
      <path id="Контур_137" data-name="Контур 137" d="M212.167,195.623l9.366,7.141-4.683,11.8,5.718,4.812,8.719,9.366V295.8L38.022,291.608,42.86,190.215Z" transform="translate(-38.022 -190.215)" fill="#23dba8" stroke="#23dba8" stroke-width="1"/>
    </g>
    <g id="Layer_19" transform="translate(-461.955 -35.519)">
      <path id="Контур_138" data-name="Контур 138" d="M207.24,384.2v22.509l3.881,24.76v63.749l-16.636-10.5-6.365,3-8.641-2.251-12.755,3.752-5.33,6-4.346-9.754-11.306-2.251-6,12-3.751-11.254-5.252,3.751-6-4.5-4.5,6.753-12.755-12-4.5,2.251-18.007-9-15.523-1.5L63.21,459.234l3-58.626-79.66-7.27,1.268-13.893Z" transform="translate(13.449 -379.444)" fill="#23dba8" stroke="#23dba8" stroke-width="1"/>
    </g>
    <g id="Layer_20" transform="translate(-575.145 -21.625)">
      <path id="Контур_139" data-name="Контур 139" d="M116.994,509.733l5.019-2.329,3.26,2.329v50.373l6.468,11.125,6.83,15.472v11.849L135.7,612.574v9.366l-3.363,12.677-19.2,4.967-4.631-.7v-5.562l-7.658,2.794-.7,4.165,2.794,4.89-6.985,5.563-2.432,6.287L74,667.837,65.638,671.3l-2.1-3.467-9.055,3.829,3.829,5.226-9.754,2.432-1.4,6.985-3.493-2.1-3.829,1.733v4.528L36.713,695l-4.528-.336-2.794,3.493,2.1,4.864-2.1,6.985L25.2,714.2l2.794,4.528-3.13,9.055,6.623,23,5.226,5.226v4.553l-4.528-3.156-3.493,3.156-8.02-5.951-16.041-3.13L-19.4,740.693l-8.719-17.438-2.794-9.754v-6.623l-2.1-6.287h-5.226l-4.191-6.261v-3.156l-10.452-12.548L-60.2,661.55l-3.13-11.151-15.342-12.91v-4.528l-6.96-4.528H-96.45l-8.02-1.733-3.493-4.191-3.829,4.89-8.719.336-6.96,16.041-6.287,6.623h-4.864l-32.03-22.923-5.278-8.1,1.733-9.417-4.528-5.925v-3.829l-38.342-40.1v-4.864l-6.96-4.528-1.863-6.753,99.142,13.091L-112.7,405.52l79.66,7.27-3,58.626,6.235,10.478,15.523,1.5,18.007,9,4.5-2.251,12.755,12,4.5-6.753,6,4.5,5.252-3.751L40.491,507.4l6-12L57.8,497.65l4.346,9.754,5.33-6L80.23,497.65l8.641,2.251,6.365-3Z" transform="translate(225.888 -405.52)" fill="#23dba8" stroke="#23dba8" stroke-width="1"/>
      <path id="Контур_140" data-name="Контур 140" d="M433.184,630.973h79.324l3.881,11.642,3.881,11.642-5.433,2.716L510.955,669l-6.985,19.352.388,6.261H556l-1.94,9.314,7.063,13.635-12.936-3.312-6.623-.362-3.131,5.588,3.131,5.226,9.754-2.458,5.226,1.061L559,728.873l13.246-8.693,2.1,5.563-3.493,1.4-7.4,8.046-2.354,4.165,19.87,11.849-10.116,4.864-1.4-4.528-11.513-5.226-1.759-3.26-5.562-.233-1.4,8.383-3.13,2.1-2.432-4.191-8.02,1.035-4.191,4.89-9.754-3.493-5.226-7.322-7.322-1.4-4.191-6.623-5.925-1.371-2.432-2.458-5.588,2.794v6.96l-29.934-6.882-20.827,4.709,3.363-12.677V717.9l2.872-14.023V692.031l-6.83-15.472-6.468-11.125Z" transform="translate(-82.022 -510.849)" fill="#23dba8" stroke="#23dba8" stroke-width="1"/>
      <path id="Контур_141" data-name="Контур 141" d="M400.747,410.436l116.761-4.916,3.519,8.874-7.917,8.357h17.153l-5.278,12.315L521.906,454l-9.236,9.676-.88,9.676-7.037,7.477-3.959,8.357-2.639,11.875L491.92,505.9l7.115,10.116-1.682,9.624H418.03V509.733l-3.26-2.329-5.019,2.329-5.123-3V443.655l-3.881-24.76Z" transform="translate(-66.868 -405.52)" fill="#23dba8" stroke="#23dba8" stroke-width="1"/>
    </g>
    <g id="Layer_21" transform="translate(-271.303 -151.607)">
      <path id="Контур_142" data-name="Контур 142" d="M344.372,161.567h99.3l7.477,5.976v12.781L457.3,190.88l11.875,10.3,4.4,14.178,7.477-3.363,5.718,5.718v8.822l-5.278,8.771,22.431,17.619,3.1,7.037v7.477l8.357,7.917,2.2,11.435-7.917,4.761-5.744,17.231H486.772l7.917-8.357-3.519-8.874-116.761,4.916V215.355l-14.437-14.178,4.683-11.8-9.366-7.141Z" transform="translate(-344.372 -161.567)" fill="#23dba8" stroke="#23dba8" stroke-width="1"/>
    </g>
    <g id="Layer_22" transform="translate(-304.782 -439.046)">
      <path id="Контур_143" data-name="Контур 143" d="M299.209-186.429l122.582-3.208v-9.676l-14.954-11-2.639-7.477-10.142-2.2.44-4.4-10.116-2.2-.88-21.577L385.26-253l-4.838-5.278.44-7.218,11.875-9.029L394.367-296l11.694-12.289,14.1-12.108,10.478-6.623,18.809-12.212-8.357-2.432-13.247,2.1-6.985-3.829-15.316,5.563-8.719-2.768-4.89-4.553-3.829,1.061-6.623-8.02-16.377-2.794-9.78,2.432-11.487-5.562-5.226,2.1-3.156-3.829.052-7.244-1.423-9.5-6.623-1.4-2.1,9.754-43.569,2.1,2.924,8.59-3.182,2.717,1.811,24.009,4.554,3.415,2.277,38.86,4.683,13.945v9.029l-6.054,10.4v4.088l10.4,7.891Z" transform="translate(-281.539 377.908)" fill="#23dba8" stroke="#23dba8" stroke-width="1"/>
    </g>
    <g id="Layer_23" transform="translate(-292.312 -250.774)">
      <path id="Контур_144" data-name="Контур 144" d="M432.725-24.555v5.278l4.4,4.4-2.2,7.477,3.958,8.8,9.236,3.079,7.037,10.168,7.037,7.011-1.811,9.236-8.3,10.375-11,3.26-2.2,7.037,3.958,7.477-3.958,9.676-6.158,5.9V80.59l-7.477-5.976h-99.3l-1.759-7.425V61.315l-3.622-4.088V49.983l-3.182-12.238-9.495-19.016L305.8,1.421l4.346-7.606-5.2-6.571v-8.59Z" transform="translate(-304.943 24.555)" fill="#23dba8" stroke="#23dba8" stroke-width="1"/>
    </g>
    <g id="Layer_24" transform="translate(-205.899 -385.025)">
      <path id="Контур_145" data-name="Контур 145" d="M526.295-109.748l65.793-3.027-.155-3.053-5.226-26.493,3.493-9.392-1.061-12.212,4.89-8.02.336-10.789,3.053-5.2,4.269-10.142,1.759-8.02-4.191,4.89-4.191,6.96-6.261,4.528-5.226,7.658-3.156-1.035,2.1-8.02L591.57-203.3l3.493-9.78,3.829-6.623,1.061-8.693,3.829-.362.7,4.89,3.493-4.528H611.8l.336,4.528,3.493-1.4,1.733-5.588,9.78-.7,3.182-3.234,6.908-4.088,11.849,1.061,3.493,3.829,3.13-4.89,13.945.362,8.719-3.829-20.1-7.632-11.617,1.009-2.1-5.925v-5.588L634.1-256.65l-12.548,2.1-8.02,4.191-5.925,4.528-7.658-.7-7.684.362-9.055-7.348-7.658-2.768H568.57l-3.829,1.4,2.1-8.383,2.432-6.261,8.02-5.925-10.116-1.061-4.864,7.684-5.925,3.467-6.287,6.287-14.644,6.623-10.09,8.357-8.719-1.733-8.02,2.794-.362-6.985,2.794-3.13-4.476-1.035L490.152-245.5l-9.081-3.131-1.63,21.474-11.875,9.029-.44,7.218,4.838,5.278-1.759,4.838.88,21.577,10.116,2.2-.44,4.4,10.142,2.2,2.639,7.477,14.954,11v14.954l4.4,4.4-2.2,7.477,3.958,8.8,9.236,3.079Z" transform="translate(-467.125 276.52)" fill="#23dba8" stroke="#23dba8" stroke-width="1"/>
    </g>
    <g id="Layer_25" transform="translate(-164.529 -221.28)">
      <path id="Контур_146" data-name="Контур 146" d="M609.009,214.26l2.2-7.788,7.011-3.234,5.537,5.511h4.165V197.7l8.771-4.631v-18.99l7.4-13.3,3.674-6.52V146.01l-5.537-4.165L645,135.376l-6.985-81.5L633.1,42.055l-4.89-3.829.155-7.425-65.793,3.027L567.2,40.5l7.037,7.011-1.811,9.236-8.3,10.375-11,3.26-2.2,7.037,3.958,7.477-3.958,9.676-6.158,5.9v18.757l6.158,10.556,11.875,10.3,4.4,14.178,7.477-3.363,5.718,5.718v8.2l-5.278,9.392L596.8,191.234l3.855,7.632v7.477Z" transform="translate(-544.769 -30.801)" fill="#23dba8" stroke="#23dba8" stroke-width="1"/>
    </g>
    <g id="Layer_26" transform="translate(-72.606 -206.481)">
      <path id="Контур_147" data-name="Контур 147" d="M736.7,64.087l49.157-5.511,9.961,96.374-1.863,3.751-5.821,3.1-4.993-1.035-1.449,6.468L771.315,180.3l-1.449,5.381H763.01l-3.337-3.312-4.139,3.312-.207,5.2-2.51,1.449-4.967-3.312-4.579,1.035-.621,6.028h-4.786l-3.725-2.82h-12.47l-4.372,5.718V187.057l11.073-19.818v-8.253l-5.537-4.165,2.768-6.468-6.985-81.5,7.969,3.519Z" transform="translate(-717.294 -58.576)" fill="#23dba8" stroke="#23dba8" stroke-width="1"/>
    </g>
    <g id="Layer_27" transform="translate(-53.202 -336.903)">
      <path id="Контур_148" data-name="Контур 148" d="M802.869-55.782l30.762-4.346v-2.924l3.027-4.295,2.794-3.493v-5.925l3.493-3.493,2.1-10.452,4.864-.336,2.1-14.307-9.055-26.829-9.417-2.432-12.419,15.782-6.416-2.2-1.035-8.02,6.985-5.925,3.13-6.261-.7-14.644-2.794-5.925-.336-5.925,2.768-3.493-8.693-5.588-11.177-2.07-2.07-3.855L788.2-186.2l-7.994,9.392,1.4,4.553-5.588,5.925v7.994l-6.623,6.287-3.829-4.191-4.528,3.131-3.855,6.985.259,9.34-2.691,10.866,1.061,8.719,3.829,12.548L765.2-92.106l-3.131,28.951-7.322,11.28-1.035,1.6Z" transform="translate(-753.712 186.203)" fill="#23dba8" stroke="#23dba8" stroke-width="1"/>
    </g>
    <g id="Layer_28" transform="translate(-4.045 -226.248)">
      <path id="Контур_149" data-name="Контур 149" d="M947.52,21.478l7.425,41.292-3.7,4.45v3.855L947.52,74.93l7.425,4.786-3.7,12.988v5.278l-7.813,10.09h-6.261l-4.812,10.09v5.769h-8.641v9.133L916.5,144.6l-13.454-11.047-5.769,5.77h-10.09l-4.321,2.872-4.321-4.812h-6.727l-7.218-10.09-9.547,1.915-9.081-87.965L876.734,36.9l.259,4.631,5.226-1.035,11.151,4.864,11.487,1.759,9.78-6.985,5.226,2.432,9.754-11.849,5.925-1.733Z" transform="translate(-845.972 -21.478)" fill="#23dba8" stroke="#23dba8" stroke-width="1"/>
    </g>
    <g id="Layer_29" transform="translate(293.872 -463.107)">
      <path id="Контур_150" data-name="Контур 150" d="M1405.113-342.6l19.4,55.185v6.778l8.59,8.512,5.563-19.171-1.734-5.925,5.589-5.925,3.829,1.733,2.794-4.864,6.959-1.4,2.794-4.89,4.165-11.151,4.89-1.035,7.684-9.417,5.226,2.1,4.165-4.89,7.322-5.226,4.89-7.322,4.528-1.4-3.493-3.829-2.1-5.588-10.09-2.768-3.156-7.684-7.3-3.829-12.91-40.076-13.247-8.383-14.98,9.417-4.89-3.829.7-4.89-3.829,1.4-9.417,32.081,2.1,4.528-2.432,6.261,1.733,13.945-1.733,6.985-3.855,4.864,1.4,5.925-3.829,4.89-3.493-2.1Z" transform="translate(-1405.113 423.067)" fill="#23dba8" stroke="#23dba8" stroke-width="1"/>
    </g>
    <g id="Layer_30" transform="translate(280.936 -382.644)">
      <path id="Контур_151" data-name="Контур 151" d="M1387.25-257.694v7.865l2.51,5.226-2.51,8.02-6.416,4.605v5.666l3.079,5.123-.621,6.158-2.458,5.847v17.878l2.147,10.763,28.951-7.063,3.7-5.873,5.071-1.475,1.061-6.623-8.589-8.512v-6.778l-19.4-55.185-4.088,2.147-3.13,6.287Z" transform="translate(-1380.833 272.053)" fill="#23dba8" stroke="#23dba8" stroke-width="1"/>
    </g>
    <g id="Layer_31" transform="translate(244.482 -368.285)">
      <path id="Контур_152" data-name="Контур 152" d="M1351.017-167.953l-17.541,3.389-4.942-9.857v-9.236l-3.7-8.3h-3.389v-8.02l-3.984-4.916v-5.847l2.458-4.631-7.5-20.025,42.87-9.7v7.865l2.51,5.226-2.51,8.02-6.416,4.605v5.666l3.079,5.123-.621,6.158-2.458,5.847v17.878Z" transform="translate(-1312.416 245.103)" fill="#23dba8" stroke="#23dba8" stroke-width="1"/>
    </g>
    <g id="Layer_32" transform="translate(265.542 -305.546)">
      <path id="Контур_153" data-name="Контур 153" d="M1351.942-109.551v24.035l40.024-9.236,9.262-1.552v3.7l3.674,1.863h4.942l3.726,7.011,4.114-5.614,6.261-2.458,1.4,3.493,4.191-3.493,6.261-2.07v-6.287l-4.191-8.357-3.829,3.829,2.1,3.829v4.528l-5.226,1.061-4.89-2.794-5.226-6.96-8.693-1.759,4.864-13.583-3.493-6.985-5.071,1.475-3.7,5.873Z" transform="translate(-1351.942 127.351)" fill="#23dba8" stroke="#23dba8" stroke-width="1"/>
    </g>
    <g id="Layer_33" transform="translate(305.566 -274.499)">
      <path id="Контур_154" data-name="Контур 154" d="M1427.06-67.529l5.744,21.319,5.33-3.726v-7.658l4.165-1.733,1.4,3.467,2.458,2.794,2.51-3.441-3.726-7.011H1440l-3.674-1.863v-3.7Z" transform="translate(-1427.06 69.082)" fill="#23dba8" stroke="#23dba8" stroke-width="1"/>
    </g>
    <g id="Layer_34" transform="translate(267.172 -272.947)">
      <path id="Контур_155" data-name="Контур 155" d="M1393.4-66.168l5.744,21.319-7.218,3.6L1379.01-38.1l-8.02,3.467-6.96,5.226-6.287,6.623L1355-26.429l3.6-3.7,1.863-4.631-3.7-1.837L1355-57.32Z" transform="translate(-1355.001 66.168)" fill="#23dba8" stroke="#23dba8" stroke-width="1"/>
    </g>
    <g id="Layer_35" transform="translate(114.475 -358.583)">
      <path id="Контур_156" data-name="Контур 156" d="M1250.709-105.528l-6.287,3.131-9.547,5.433-6.468,2.587-5.252,3.493-3.13-2.432,3.829-4.554-2.742-3.648,3.6-3.7,1.863-4.631-3.7-1.837-1.759-20.724-1.63.388v-24.035l-4.942-9.857v-9.236l-3.7-8.3h-3.389v-8.02l-3.984-4.916v-5.847l2.458-4.631-7.5-20.025-31.021,7.037-18.136,19.171-2.794,8.357-9.055,9.417,1.4,3.829,3.493,2.794,1.035,7.658-3.13,5.226-5.588,4.89-5.925,4.528-15.342,6.287-5.925-4.191-24.035,5.226-2.1,8.719,5.563,6.96-2.2,7.529-6.158,7.115-10.09,8.874v7.477l107.938-19.947,12,14.411,8.641,1.837,17.127,7.71,3.312,5.123-1.242,8.693,8.02-1.061,10.659-6.287,3.286-2.07,12.186-5.226,5.925-8.719Z" transform="translate(-1068.414 226.894)" fill="#23dba8" stroke="#23dba8" stroke-width="1"/>
    </g>
    <g id="Layer_36" transform="translate(97.503 -251.628)">
      <path id="Контур_157" data-name="Контур 157" d="M1043.985,40.515l7.063,29.572,113.5-19.4,2.587-6.8,6.8,2.587,6.132-5.951,1.94-5.356,6.8-5.174-6.468-7.762h-3.881l-.337-3.234h-5.485l1.94-11.772-3.234-4.4,5.485-3.6,2.225-9.78-5.589-1.19-12-14.411L1053.532-6.21v-7.477l-4.191,3.674-4.191,1.061-4.295,4.864L1036.56-.776Z" transform="translate(-1036.56 26.157)" fill="#23dba8" stroke="#23dba8" stroke-width="1"/>
    </g>
    <g id="Layer_37" transform="translate(65.422 -184.956)">
      <path id="Контур_158" data-name="Контур 158" d="M1045.763,124.641l4.321,17.489,15.834-16.17,5.511,2.587,4.838-3.907,11.643-2.561,5.821,8.408v6.778l-4.838.647-9.7-7.762-2.924,6.158.647,4.191-2.9,1.63-.336,5.537-5.821,6.7-5.174-1.578-2.9,14.566-3.881,1.94-7.762-6.158-3.881,21.034-4.838,15.523-6.157,3.881-7.865,2.251v6.313l-9.547,2.742-4.269-2.742-3.156,5.718-12.677-5.718v-5.019l-10.038-3.544-9.366-12.626,1.061-10.142,7.218-11.539v-9.133h8.641v-5.769l4.812-10.09h6.261l7.813-10.09V128.91l3.7-12.988-7.425-4.786,3.726-3.855v-3.855l3.7-4.45,7.063,29.572Z" transform="translate(-976.349 -98.976)" fill="#23dba8" stroke="#23dba8" stroke-width="1"/>
    </g>
    <g id="Layer_38" transform="translate(46.977 -153.767)">
      <path id="Контур_159" data-name="Контур 159" d="M1077.558,157.836h3.881l4.851,3.881v3.557h5.5l6.145,5.5-4.528,9.7-.647,6.791h5.174l2.911-1.5,3.868,3.671,4.183,3.485,10.458,3.138,1.744,5.229-.349,6.274,4.183,5.886-3.485,3.177v3.485l2.44,2.789-4.53.349.7,5.578,4.88,1.395,4.53-2.09,5.229.349,3.485,3.138.7,5.925-64.812,14.822s-89.942,13.265-89.942,12.294-42.384,4.422-42.384,4.422l14.876-8.408,2.008-6.1,3.49-1.343L979.57,239.5l12.669,5.713,3.177-5.713,4.264,2.742,9.526-2.742v-6.313l7.878-2.264,6.145-3.881,4.851-15.523,3.881-21.021,7.762,6.145,3.881-1.94,2.911-14.553,5.174,1.578,5.821-6.719.323-5.531,2.91-1.617-.647-4.2,2.911-6.145,9.7,7.762,4.851-.647v-6.8Z" transform="translate(-941.732 -157.512)" fill="#23dba8" stroke="#23dba8" stroke-width="1"/>
    </g>
    <g id="Layer_39" transform="translate(-106.007 -120.431)">
      <path id="Контур_160" data-name="Контур 160" d="M807.614,298.316,697.321,309.751l-6.779-1.734v6.132l-35.936,4.735,7.917-4.761-2.2-11.435,2.2-7.788,7.011-3.234,5.537,5.511h4.165V286.13l8.771-4.631v-7.063l4.372-5.718h12.47l3.726,2.82h4.786l.621-6.028,4.579-1.035,4.967,3.312,2.51-1.449.207-5.2,4.139-3.312,3.337,3.312h6.856l1.449-5.381L752.4,242.691l1.449-6.468,4.993,1.035,5.821-3.1,1.863-3.751-.88-8.408,9.547-1.915,7.218,10.09h6.727l4.321,4.812,4.321-2.872h10.09l5.769-5.77L827.1,237.387l-1.061,10.142,9.366,12.626,10.038,3.544v5.019l-17.464,13.738-3.493,1.345-2.018,6.106Z" transform="translate(-654.606 -220.079)" fill="#23dba8" stroke="#23dba8" stroke-width="1"/>
    </g>
    <g id="Layer_40" transform="translate(-122.953 -46.825)">
      <path id="Контур_161" data-name="Контур 161" d="M835.133,358.225v10.789l-4.553,3.26-4.528,5.821h-4.864l-4.217,4.01h-5.8l-5.2,6.546-4.269,5.356-8.952,6.649-12.16,3.415-2.277,3.907-5.174,7.787V421.3L622.8,434.91l2.846-3,3.079-18.938L634,400.655l5.744-17.231,35.936-4.735v-6.132l7.115,1.682,140.071-14.9Z" transform="translate(-622.801 -358.225)" fill="#23dba8" stroke="#23dba8" stroke-width="1"/>
    </g>
    <g id="Layer_41" transform="translate(27.39 -73.732)">
      <path id="Контур_162" data-name="Контур 162" d="M906.47,397.475,943,392.327l11.9-4.269,6.287-5.123,37.023-3.441,1.992,2.561,5.407.569,2.277,6.856,30.477-4.554,32.806,24.346,2.432-1.863,9.909-1.914,4.372-3.648,2.794-10.478,13.609-16.713,12.186-5.226,5.588-4.191v-4.191l-5.925,3.493-9.081,1.733-3.13-4.528,5.588-.336,3.829-2.794,2.1-5.588-3.13-4.165.673-3.855,4.191-1.733,1.759,3.131,3.131,1.061,4.864-2.458,4.191-5.226V328.293l-3.493,1.4-2.432,3.829-4.528-5.226-10.814,3.829-2.432-3.493,18.136-10.452v-4.89l-3.855-5.562-61.317,13.505-91.82,13.505-1.6-.1v10.789l-4.553,3.26-4.528,5.821h-4.864l-4.217,4.01H943l-9.469,11.9-8.952,6.649-12.16,3.415-7.451,11.694v5.537Z" transform="translate(-904.969 -307.725)" fill="#23dba8" stroke="#23dba8" stroke-width="1"/>
    </g>
    <g id="Layer_42" transform="translate(-153.197 24.712)">
      <path id="Контур_163" data-name="Контур 163" d="M653.175,492.486V600.735l4.476,44.629L645.1,643.631l-21.914,9.236-7.063-13.635,1.94-9.314H566.425l-.388-6.261L576.9,592.275l5.433-2.717-7.762-23.285,1.682-9.624-7.115-10.116,6.235-4.838,2.639-11.875,3.958-8.357,7.037-7.477.88-9.676,6.39-6.675Z" transform="translate(-566.037 -492.486)" fill="#23dba8" stroke="#23dba8" stroke-width="1"/>
    </g>
    <g id="Layer_43" transform="translate(-66.06 18.709)">
      <path id="Контур_164" data-name="Контур 164" d="M729.579,487.223l66.207-6,22.3,79.79,4.942,4.424v5.278l-3.182,14.644,5.278,10.116-2.1,8.046,5.019,8.2-70.889,6.675-.6,8.564,4.347,9.314-4.191,4.528-5.562-.362L748,635.212l-1.733-8.693L740.678,638.7l-3.829-2.432-2.794,3.829-4.476-44.629Z" transform="translate(-729.579 -481.221)" fill="#23dba8" stroke="#23dba8" stroke-width="1"/>
    </g>
    <g id="Layer_44" transform="translate(0.146 10.87)">
      <path id="Контур_165" data-name="Контур 165" d="M886.1,604.846l4.683,6.675,72.649-3.338,8.2,8.486V596.645l13.764,2.484-2.251-18.55,3.829-12.522,7.167-13.221-8.434-.7-.6-14.9-7.3-3.337V528.11l-19.2-10.556v-9.961l-20.1-9.366L932.386,485.5l-17.593-7.477,4.321-11.513-38.032,5.381-27.243,2.458,22.3,79.789,4.942,4.424v5.278L877.9,578.483l5.278,10.116-2.1,8.046Z" transform="translate(-853.838 -466.508)" fill="#23dba8" stroke="#23dba8" stroke-width="1"/>
    </g>
    <g id="Layer_45" transform="translate(-39.076 141.007)">
      <path id="Контур_166" data-name="Контур 166" d="M784.571,743.507l-4.346-9.314.6-8.564,70.89-6.675,4.683,6.675,72.649-3.338,8.2,8.486V710.753l13.764,2.484.88,6.209,2.794,4.191,1.035,6.96,4.89,5.925-.362,10.116,11.849,14.282,1.759,5.95,6.623,2.768,8.719,12.212-1.061,8.02,1.733,8.719,5.951,3.829,4.864,14.644,9.418,13.583,5.226,10.452-3.131,10.815,3.131,10.116-5.588,7.322L1011.5,880.5l-6.986,5.226-10.452,3.467V883.63l-5.562-.7-6.985-9.417-5.925-4.528-8.719-2.1-.6-5.174-2.2-4.916-9.055-10.116V840.76L947,840.4l-5.692-8.745-5.459-5.537-1.733-4.191,3.493-3.467,1.371-6.287-2.432-3.829-4.191-.7v4.191l-2.432,2.432-3.493-4.528-.336-6.623,2.432-6.985,1.4-7.658-2.1-8.02-6.96-11.849-5.588.336-14.54-14.1-2.975-3.544-14.2-8.15-9.65,1.759-4.631,5.226-9.754,5.563-12.212,6.623v-5.562l-7.322-4.528,2.432-4.553-6.623-3.467-4.166,2.432-10.452-4.191-5.588-.336v-4.528l-10.918,4.967-5.459-3.234h-5.588l-2.794,3.829Z" transform="translate(-780.225 -710.753)" fill="#23dba8" stroke="#23dba8" stroke-width="1"/>
    </g>
    <g id="Layer_46" transform="translate(61.101 -1.963)">
      <path id="Контур_167" data-name="Контур 167" d="M1047.589,543.583l3.286-8.745,6.623-9.417,20.568-15.679,2.794-7.322,4.528-5.226,4.166-11.177,6.287-10.09,4.89-3.726-32.806-24.346-30.477,4.554-2.277-6.856-5.407-.569-1.992-2.561-37.023,3.441-6.287,5.123-11.9,4.269-4.321,11.513,17.593,7.477,6.132,12.729,20.1,9.366V506.3l19.2,10.556v7.787l7.3,3.338.6,14.9Z" transform="translate(-968.24 -442.424)" fill="#23dba8" stroke="#23dba8" stroke-width="1"/>
    </g>
    <g id="Layer_47" transform="translate(134.837 -174.788)">
      <path id="Контур_168" data-name="Контур 168" d="M1110.949,151.046l15.834-16.17,5.511,2.587,4.838-3.907L1148.774,131l5.821,8.408h3.881l4.864,3.881v3.544h5.485l6.157,5.511-4.527,9.7-.647,6.778h5.174l2.9-1.475,3.881,3.674,3.13-2.794h6.287v-3.156l-5.226-13.583V134.747l7.658-10.09,3.131.336-.336,6.96-3.829,8.02,2.768,6.985L1198.5,163l5.925,1.734h4.166l.362,7.658,6.96-1.371-.336,6.261-2.432,8.02v9.728l4.864-9.029,3.493-15.678,3.829-6.287v-11l-16.222,3.079-11.823-38.058-90.656,15.5Z" transform="translate(-1106.629 -118.059)" fill="#23dba8" stroke="#23dba8" stroke-width="1"/>
    </g>
    <g id="Layer_48" transform="translate(225.492 -181.592)">
      <path id="Контур_169" data-name="Контур 169" d="M1283.915,115.534l2.251-7.658-6.8-2.587-2.587,6.8,11.824,38.058,16.222-3.079v-5.744l-5.226-6.623-5.226-2.768Z" transform="translate(-1276.775 -105.288)" fill="#23dba8" stroke="#23dba8" stroke-width="1"/>
    </g>
    <g id="Layer_49" transform="translate(232.297 -236.027)">
      <path id="Контур_170" data-name="Контур 170" d="M1297.255,3.123l20.18,8.357,3.312,5.123-1.242,8.693-2.432,5.226,4.864-.7,2.794,2.432v23.7l-9.055,19.171-4.89,4.89-2.432-4.191-6.986-3.467-5.148-4.528-3.933-5.8-.155-1.889,6.132-5.951,1.94-5.356,6.8-5.174-6.468-7.762h-3.881l-.336-3.234h-5.485l1.94-11.772-3.234-4.4,5.485-3.6Z" transform="translate(-1289.545 -3.123)" fill="#23dba8" stroke="#23dba8" stroke-width="1"/>
    </g>
  </g>
</svg>
