<svg xmlns="http://www.w3.org/2000/svg" width="258" height="434" viewBox="0 0 258 434">
  <path id="Контур_33" data-name="Контур 33" d="M161.05,2272.758l-8.937,7.739-41.982-10.8-14.17-14.151v-9.8l-6.579-10.092-7.12-14.684-3.972-23.823-12.7-22.348-6.031-21.267v-16.357L68.2,2115.61l5.5-19.026-5.5-14.427-6.392-15.279-2.249-12.1-5.592-15.613L40.8,2030.755l-11.951-9.525-10.445-12.2L14,1995.41v-12.93l-4.521-8.534c.466.465-9.253-8.451-9.253-8.451.466.931-7.467-6.259-7.467-6.259,0,1.4-2.9-9.308-2.9-9.308L-4.015,1940v-12.163l8.338-10.063L14,1908.7l4.41-9.086v-13.965L14,1876.278l-4.521-6.09,13.04-3.013,8.813-6.839,3.4-8.969,3.855-4.871h7.459l56.1,13.84,5.649,6.839,7.079,9.1,6.056,3.637,15.8,2.266,9,3.47,9.112,10.377,3.34,10.328,2.876,11.417,5.4,4.141h12.8l18,10.61,17.825,2.63,10.48,12.614,17.789,6.766,4.519,10.961-1.889,16.985-5.618,12.93-8.069,13.617-6.733,9.241v12.487l3.918,8.409v15.613l-12.287,8.674-11.036,6.645-15.517,8.8-2.89,6.3,2.89,11.393-2.89,7.487-3.59,9.619-8.639,6.393,3.738,5.315s10.074,8.833,8.491,11.777-14.82,0-14.82,0H145.723l3.577,16.357v5.847l-3.577,4.681-4.8,3.429h-10.8v7.31l-3.781,5.547-7.288,4.359,4.812,7.387v5.055l-6.729,11.563v8.509l9.205,7.438-2.476,7.848-2.946,11.228,9.2,15.235,10.8,6.9,20.124,6.891" transform="translate(10.141 -1846.496)" fill="#23dba8"/>
</svg>
