<svg xmlns="http://www.w3.org/2000/svg" width="235" height="184" viewBox="0 0 235 184">
  <path id="Контур_30" data-name="Контур 30" d="M1072.027,590.064c.941-5.157,6.089-9.71,4.485-14.7-1.108-3.451-5.114-5.155-8.742-5.24s-7.189.994-10.816,1.1a52.706,52.706,0,0,0-7.083.1c-7.2,1.182-11.637,8.721-18.422,11.4-4.125,1.63-8.759,1.318-13.05,2.445-9.739,2.558-15.9,11.753-22.71,19.166A81.06,81.06,0,0,1,954.554,628.3c-5.538,1.281-11.491,2.1-15.893,5.694-5.828,4.758-7.264,12.915-8.561,20.323A335.446,335.446,0,0,1,913.744,714.3l23.126,2.95c4.4.561,8.953,1.109,13.19-.191a38.291,38.291,0,0,0,8.675-4.617,86.655,86.655,0,0,1,33.836-12.2c6.057-.831,12.405-.983,18.089,1.266s10.559,7.349,11.035,13.438a14.216,14.216,0,0,1,14.2,3.45,24.656,24.656,0,0,1,6.779,13.521c.609,3.161,1.219,6.948,4.154,8.274,2.4,1.082,5.143-.083,7.763-.293,8.892-.711,16.27,9.647,25.008,7.863,9.373-1.913,11.675-15.937,20.818-18.746,5.251-1.613,12.617.348,15.132-4.532,2.217-4.3-2.206-9.266-1.75-14.082.563-5.931,7.564-8.448,12.962-10.979,18.61-8.724,27.442-33.749,18.424-52.206-5.343-10.936-15.856-19.544-17.8-31.557-1.493-9.243,2.153-20.021-3.745-27.3-3-3.7-8.081-5.744-9.866-10.16-1.124-2.78-.672-5.934-1.277-8.87s-3.169-6.008-6.071-5.247c-8.425,2.209-11.113,28.212-15.624,34.53C1083.944,608.222,1069.868,601.9,1072.027,590.064Z" transform="translate(-913.744 -563.971)" fill="#23dba8"/>
</svg>
